<svg width="2565" height="2666" viewBox="0 0 2565 2666" fill="none" xmlns="http://www.w3.org/2000/svg">
<path d="M708.467 409.118C721.011 387.38 744.185 374.051 769.197 374.056L1794.71 374.271L1794.78 374.271C1819.77 374.303 1842.88 387.637 1855.4 409.321L2368.34 1297.76C2380.87 1319.46 2380.83 1346.1 2368.44 1367.7L2368.35 1367.85L1855.78 2256.08L1855.76 2256.11L1855.74 2256.15C1843.22 2277.78 1820.13 2291.11 1795.14 2291.14L1795.1 2291.14L1795.05 2291.14L769.543 2290.92L769.543 2290.92C744.471 2290.92 721.352 2277.53 708.849 2255.87L195.907 1367.43C183.375 1345.72 183.401 1319.02 195.885 1297.37L195.892 1297.36L195.899 1297.34L708.466 409.117L708.467 409.118Z" stroke="url(#paint0_linear_3510_7)" stroke-width="140" stroke-linejoin="round"/>
<path d="M1281.12 1332.92L842.502 573.586L403.887 1332.92H1281.12Z" fill="#F4DE97" fill-opacity="0.35"/>
<path d="M1280.82 1335.72L842.526 576.203L1719.44 576.018L1280.82 1335.72Z" fill="#F4DE97" fill-opacity="0.41"/>
<path d="M1719.43 573.412L1281.14 1332.93L2158.04 1333.12L1719.43 573.412Z" fill="#F4DE97" fill-opacity="0.5"/>
<path d="M1280.72 1332.89L842.104 2092.22L403.489 1332.89H1280.72Z" fill="#F4DE97" fill-opacity="0.2"/>
<path d="M1280.42 1330.08L842.128 2089.6L1719.04 2089.79L1280.42 1330.08Z" fill="#F4DE97" fill-opacity="0.26"/>
<path d="M1720.3 2092.4L1282 1332.88L2158.91 1332.7L1720.3 2092.4Z" fill="#F4DE97" fill-opacity="0.32"/>
<defs>
<linearGradient id="paint0_linear_3510_7" x1="1291.52" y1="142.451" x2="1318.45" y2="1453.51" gradientUnits="userSpaceOnUse">
<stop stop-color="#FFE875"/>
<stop offset="0.711538" stop-color="#FEFBE0"/>
<stop offset="1" stop-color="#FFE875"/>
</linearGradient>
</defs>
</svg>
