<svg width="79" height="91" viewBox="0 0 79 91" fill="none" xmlns="http://www.w3.org/2000/svg">
<path d="M13.4578 35.9357L8.54481 42.9282C8.19776 43.4221 7.92756 43.9658 7.74342 44.5406L7.48243 45.3554C7.23267 46.1352 7.2589 46.9772 7.55671 47.7399C7.85705 48.509 8.41504 49.1501 9.13542 49.5536L12.317 51.3358C13.0741 51.7599 13.8847 52.0807 14.7271 52.2894L17.1518 52.8903C18.1084 53.1274 19.1201 52.9734 19.9629 52.4624C20.4905 52.1425 20.9298 51.6958 21.2409 51.163L22.0549 49.7687C22.6011 48.8332 23.3734 48.0498 24.3011 47.4904L24.4944 47.3738C25.3764 46.8419 26.3868 46.5608 27.4167 46.5608C27.7352 46.5608 28.0531 46.5339 28.3671 46.4804L28.7616 46.4132C30.1983 46.1685 31.5674 45.6242 32.78 44.8158L36.8858 42.0786C37.1612 41.895 37.4011 41.6632 37.5939 41.3943L38.4504 40.2005C39.2764 39.0491 41.0329 39.1985 41.6526 40.4728C41.8024 40.7808 41.8647 41.1241 41.8328 41.4652L41.6844 43.0507C41.5341 44.6568 40.8739 46.1726 39.8004 47.3766L35.7006 51.9749L30.264 56.7347L27.1472 60.265C26.2844 61.2422 25.6044 62.3666 25.1396 63.5844L24.0604 66.4123C23.5892 68.0256 22.4205 69.3444 20.8753 70.0054C20.0193 70.3715 19.2677 70.9444 18.688 71.6728L18.1828 72.3076C17.3593 73.3421 16.7786 74.5484 16.4835 75.8373L16.3937 76.2292C16.3016 76.6314 16.2551 77.0427 16.2551 77.4553C16.2551 80.4887 18.7142 82.9478 21.7476 82.9478H65.544C68.9336 82.9478 71.6815 80.1625 71.6815 76.7729C71.6815 76.2038 71.5984 75.6326 71.4349 75.0875C71.196 74.2911 70.79 73.5549 70.244 72.9279L68.7536 71.2163C68.3806 70.7879 67.9049 70.4612 67.3711 70.2668L65.6804 69.6512C64.6758 69.2854 64.221 68.1204 64.7122 67.1707C64.7713 67.0565 64.8178 66.9362 64.8508 66.8119L68.325 53.7402C68.6355 52.5715 68.7488 51.3592 68.6603 50.1532L68.1849 43.6733L67.2061 37.2168C67.077 36.3658 66.8474 35.5331 66.522 34.7362L65.3665 31.9063C64.9913 30.9875 64.4922 30.1245 63.8829 29.3412L60.3796 24.8369L56.5471 20.7896C55.8867 20.0921 55.1367 19.4852 54.3168 18.9847L52.8355 18.0805C52.3314 17.7728 51.803 17.5067 51.2557 17.2848L47.0701 15.5879L43.4156 14.6405L41.7071 14.2831C39.9269 13.9107 38.2686 13.0977 36.8839 11.9186L36.1066 11.2567L32.0587 7.84952C31.0751 7.02168 29.6026 7.16759 28.8006 8.17234C28.4774 8.57727 28.3014 9.07999 28.3014 9.59809V10.3842C28.3014 10.9606 28.1914 11.5316 27.9773 12.0668L27.6869 12.7929C27.2006 14.0085 26.443 15.0969 25.4718 15.975L23.6543 17.6182L22.1856 19.2044C21.2923 20.1692 20.5813 21.288 20.0873 22.5066L19.1426 24.8369L18.0951 28.5548C17.7289 29.8547 17.1237 31.075 16.3105 32.1532L13.4578 35.9357Z" stroke="url(#paint1_linear_3512_2)" stroke-opacity="0.7" stroke-width="13.31547"/>
<path d="M13.4578 35.9357L8.54481 42.9282C8.19776 43.4221 7.92756 43.9658 7.74342 44.5406L7.48243 45.3554C7.23267 46.1352 7.2589 46.9772 7.55671 47.7399C7.85705 48.509 8.41504 49.1501 9.13542 49.5536L12.317 51.3358C13.0741 51.7599 13.8847 52.0807 14.7271 52.2894L17.1518 52.8903C18.1084 53.1274 19.1201 52.9734 19.9629 52.4624C20.4905 52.1425 20.9298 51.6958 21.2409 51.163L22.0549 49.7687C22.6011 48.8332 23.3734 48.0498 24.3011 47.4904L24.4944 47.3738C25.3764 46.8419 26.3868 46.5608 27.4167 46.5608C27.7352 46.5608 28.0531 46.5339 28.3671 46.4804L28.7616 46.4132C30.1983 46.1685 31.5674 45.6242 32.78 44.8158L36.8858 42.0786C37.1612 41.895 37.4011 41.6632 37.5939 41.3943L38.4504 40.2005C39.2764 39.0491 41.0329 39.1985 41.6526 40.4728C41.8024 40.7808 41.8647 41.1241 41.8328 41.4652L41.6844 43.0507C41.5341 44.6568 40.8739 46.1726 39.8004 47.3766L35.7006 51.9749L30.264 56.7347L27.1472 60.265C26.2844 61.2422 25.6044 62.3666 25.1396 63.5844L24.0604 66.4123C23.5892 68.0256 22.4205 69.3444 20.8753 70.0054C20.0193 70.3715 19.2677 70.9444 18.688 71.6728L18.1828 72.3076C17.3593 73.3421 16.7786 74.5484 16.4835 75.8373L16.3937 76.2292C16.3016 76.6314 16.2551 77.0427 16.2551 77.4553C16.2551 80.4887 18.7142 82.9478 21.7476 82.9478H65.544C68.9336 82.9478 71.6815 80.1625 71.6815 76.7729C71.6815 76.2038 71.5984 75.6326 71.4349 75.0875C71.196 74.2911 70.79 73.5549 70.244 72.9279L68.7536 71.2163C68.3806 70.7879 67.9049 70.4612 67.3711 70.2668L65.6804 69.6512C64.6758 69.2854 64.221 68.1204 64.7122 67.1707C64.7713 67.0565 64.8178 66.9362 64.8508 66.8119L68.325 53.7402C68.6355 52.5715 68.7488 51.3592 68.6603 50.1532L68.1849 43.6733L67.2061 37.2168C67.077 36.3658 66.8474 35.5331 66.522 34.7362L65.3665 31.9063C64.9913 30.9875 64.4922 30.1245 63.8829 29.3412L60.3796 24.8369L56.5471 20.7896C55.8867 20.0921 55.1367 19.4852 54.3168 18.9847L52.8355 18.0805C52.3314 17.7728 51.803 17.5067 51.2557 17.2848L47.0701 15.5879L43.4156 14.6405L41.7071 14.2831C39.9269 13.9107 38.2686 13.0977 36.8839 11.9186L36.1066 11.2567L32.0587 7.84952C31.0751 7.02168 29.6026 7.16759 28.8006 8.17234C28.4774 8.57727 28.3014 9.07999 28.3014 9.59809V10.3842C28.3014 10.9606 28.1914 11.5316 27.9773 12.0668L27.6869 12.7929C27.2006 14.0085 26.443 15.0969 25.4718 15.975L23.6543 17.6182L22.1856 19.2044C21.2923 20.1692 20.5813 21.288 20.0873 22.5066L19.1426 24.8369L18.0951 28.5548C17.7289 29.8547 17.1237 31.075 16.3105 32.1532L13.4578 35.9357Z" fill="url(#paint0_linear_3512_2)"/>
<defs>
<linearGradient id="paint0_linear_3512_2" x1="39.3941" y1="6.34375" x2="39.3941" y2="82.9526" gradientUnits="userSpaceOnUse">
<stop offset="0.144231" stop-color="#F5E294"/>
<stop offset="0.332864" stop-color="#FDF7D0"/>
<stop offset="0.634615" stop-color="#E4D779"/>
</linearGradient>
<linearGradient id="paint1_linear_3512_2" x1="61.3274" y1="6.34375" x2="34.8221" y2="69.0097" gradientUnits="userSpaceOnUse">
<stop stop-color="#FFE875"/>
<stop offset="0.461538" stop-color="#F9F1B1"/>
<stop offset="1" stop-color="#DBC34D"/>
</linearGradient>
</defs>
</svg>
