<svg width="406" height="352" viewBox="0 0 406 352" fill="none" xmlns="http://www.w3.org/2000/svg">
<mask id="path-1-outside-1_3592_40" maskUnits="userSpaceOnUse" x="-0.213013" y="-0.33606" width="406" height="352" fill="black">
<rect fill="white" x="-0.213013" y="-0.33606" width="406" height="352"/>
<path d="M203.413 82.7253L255.039 99.4997L260.813 101.376L294.787 148.136L296.289 150.203V210.558L291.126 217.664L281.317 231.164L260.813 259.385L203.413 278.036L146.013 259.385L125.509 231.164L116.287 218.471L110.538 210.558V180.38V150.203L113.473 146.164L146.013 101.376L151.787 99.4997L203.413 82.7253Z"/>
</mask>
<path d="M315.287 116.664L320.332 112.124L314.422 105.557L309.6 112.96L315.287 116.664ZM319.787 121.664L326.313 119.799L325.882 118.29L324.832 117.124L319.787 121.664ZM321.787 128.664L315.261 130.528L315.744 132.219L316.988 133.463L321.787 128.664ZM322.287 129.164L317.488 133.963L323.088 139.563L327.764 133.172L322.287 129.164ZM352.287 88.1639L357.789 84.1902L352.323 76.6216L346.81 84.1562L352.287 88.1639ZM358.787 97.1639L365.274 95.168L364.944 94.0979L364.289 93.1902L358.787 97.1639ZM362.787 110.164L369.54 109.489L369.473 108.815L369.274 108.168L362.787 110.164ZM364.787 130.164L370.001 134.509L371.823 132.322L371.54 129.489L364.787 130.164ZM359.787 136.164L354.573 131.819L363.679 141.724L359.787 136.164ZM384.787 118.664L391.112 116.204L387.978 108.145L380.895 113.104L384.787 118.664ZM388.287 127.664H395.074V126.391L394.612 125.204L388.287 127.664ZM388.287 144.164L394.942 145.495L395.074 144.836V144.164H388.287ZM384.787 161.664L389.586 166.463L391.039 165.01L391.442 162.995L384.787 161.664ZM380.787 165.664L383.507 171.882L384.68 171.369L385.586 170.463L380.787 165.664ZM372.787 169.164L370.066 162.946L373.966 175.848L372.787 169.164ZM398.287 164.664H405.074V156.574L397.107 157.98L398.287 164.664ZM398.287 170.164L404.726 172.31L405.074 171.265V170.164H398.287ZM394.787 180.664L400.367 184.527L400.919 183.73L401.226 182.81L394.787 180.664ZM381.287 200.164L386.086 204.963L386.519 204.53L386.867 204.027L381.287 200.164ZM377.287 204.164V210.951H380.098L382.086 208.963L377.287 204.164ZM365.787 204.164V197.377L364.084 210.734L365.787 204.164ZM392.787 211.164L399.025 213.837L402.137 206.577L394.49 204.594L392.787 211.164ZM389.787 218.164L394.045 223.449L395.36 222.39L396.025 220.837L389.787 218.164ZM371.787 232.664L375.154 238.557L375.624 238.288L376.045 237.949L371.787 232.664ZM364.787 236.664L361.42 230.771L361.357 230.807L361.295 230.844L364.787 236.664ZM359.787 239.664L357.693 246.12L360.631 247.073L363.279 245.484L359.787 239.664ZM322.787 227.664L324.881 221.208L322.237 220.351L319.752 221.593L322.787 227.664ZM320.787 228.664L318.427 235.027L321.188 236.051L323.822 234.734L320.787 228.664ZM89.787 116.664L95.0792 112.415L90.0819 106.191L84.7423 112.124L89.787 116.664ZM85.287 121.664L80.2423 117.124L79.1923 118.29L78.7611 119.799L85.287 121.664ZM83.287 128.664L88.0861 133.463L89.3297 132.219L89.8128 130.528L83.287 128.664ZM82.787 129.164L77.3096 133.172L81.9862 139.563L87.5861 133.963L82.787 129.164ZM52.787 88.1639L58.2643 84.1562L52.7512 76.6216L47.2849 84.1902L52.787 88.1639ZM46.287 97.1639L40.7849 93.1902L40.1294 94.0979L39.8001 95.168L46.287 97.1639ZM42.287 110.164L35.8001 108.168L35.601 108.815L35.5337 109.489L42.287 110.164ZM40.287 130.164L33.5337 129.489L33.2504 132.322L35.0731 134.509L40.287 130.164ZM45.287 136.164L41.3949 141.724L50.5009 131.819L45.287 136.164ZM20.287 118.664L24.1791 113.104L17.0954 108.145L13.9615 116.204L20.287 118.664ZM16.787 127.664L10.4615 125.204L10 126.391V127.664H16.787ZM16.787 144.164H10V144.836L10.1318 145.495L16.787 144.164ZM20.287 161.664L13.6318 162.995L14.0348 165.01L15.4879 166.463L20.287 161.664ZM24.287 165.664L19.4879 170.463L20.3934 171.369L21.5666 171.882L24.287 165.664ZM32.287 169.164L31.1075 175.848L35.0073 162.946L32.287 169.164ZM6.78699 164.664L7.96647 157.98L-2.38419e-06 156.574V164.664H6.78699ZM6.78699 170.164H-2.38419e-06V171.265L0.348284 172.31L6.78699 170.164ZM10.287 180.664L3.84828 182.81L4.15489 183.73L4.70678 184.527L10.287 180.664ZM23.787 200.164L18.2068 204.027L18.5551 204.53L18.9879 204.963L23.787 200.164ZM27.787 204.164L22.9879 208.963L24.9757 210.951H27.787V204.164ZM39.287 204.164L40.9903 210.734L39.287 197.377V204.164ZM12.287 211.164L10.5837 204.594L2.93698 206.577L6.04876 213.837L12.287 211.164ZM15.287 218.164L9.04876 220.837L9.71406 222.39L11.0293 223.449L15.287 218.164ZM33.287 232.664L29.0293 237.949L29.4503 238.288L29.9197 238.557L33.287 232.664ZM40.287 236.664L43.7789 230.844L43.717 230.807L43.6543 230.771L40.287 236.664ZM45.287 239.664L41.7951 245.484L44.4432 247.073L47.3808 246.12L45.287 239.664ZM82.287 227.664L85.3222 221.593L82.8366 220.351L80.1931 221.208L82.287 227.664ZM84.287 228.664L81.2517 234.734L83.7188 235.968L86.3469 235.131L84.287 228.664ZM157.787 60.6639L153.959 66.2686L162.166 71.8729L164.4 62.1901L157.787 60.6639ZM186.287 53.6639L180.942 57.8468L187.472 66.191L192.322 56.77L186.287 53.6639ZM201.287 7.66394L204.779 13.4837L205.17 13.2489L205.527 12.9637L201.287 7.66394ZM249.787 60.6639L243.174 62.1901L245.529 72.3973L253.883 66.0759L249.787 60.6639ZM221.287 53.6639L215.252 56.77L220.102 66.191L226.632 57.8468L221.287 53.6639ZM206.287 7.66394L202.047 12.9637L202.404 13.2489L202.795 13.4837L206.287 7.66394ZM301.287 249.664L307.128 253.121L309.917 248.407L305.899 244.685L301.287 249.664ZM286.787 274.164L280.946 270.707L279.096 273.834L280.672 277.108L286.787 274.164ZM293.287 287.664L297.764 292.765L301.638 289.364L299.402 284.72L293.287 287.664ZM260.813 316.164L254.936 319.558L259.073 326.722L265.29 321.265L260.813 316.164ZM255.039 306.164L260.917 302.77L254.515 291.682L248.932 303.205L255.039 306.164ZM247.287 322.164L242.619 327.091L249.351 333.469L253.395 325.123L247.287 322.164ZM237.787 313.164L242.455 308.237L231 297.385V313.164H237.787ZM237.787 328.664L240.577 334.851L244.574 333.049V328.664H237.787ZM203.413 344.164L200.737 350.401L203.481 351.578L206.203 350.351L203.413 344.164ZM167.287 328.664L160.532 328.01L160.054 332.946L164.611 334.901L167.287 328.664ZM168.787 313.164L175.542 313.818L177.224 296.44L164.247 308.119L168.787 313.164ZM158.787 322.164L152.793 325.348L156.869 333.021L163.327 327.209L158.787 322.164ZM150.287 306.164L156.281 302.98L149.623 290.448L144.046 303.497L150.287 306.164ZM146.013 316.164L141.541 321.27L148.578 327.432L152.254 318.831L146.013 316.164ZM113.473 287.664L107.06 285.44L105.563 289.758L109.001 292.77L113.473 287.664ZM117.287 276.664L123.699 278.888L124.667 276.098L123.285 273.488L117.287 276.664ZM103.787 251.164L99.1899 246.171L95.3405 249.715L97.7887 254.339L103.787 251.164ZM209.423 10.7546L215.725 8.23398L209.423 10.7546ZM207.318 8.28251L203.826 14.1023L207.318 8.28251ZM209.353 15.9654L202.914 13.8192L209.353 15.9654ZM208.419 18.154L202.99 14.0818L208.419 18.154ZM208.981 17.0828L215.419 19.229L208.981 17.0828ZM238.44 28.5469L232.139 31.0675L238.44 28.5469ZM237.882 32.4595L232.537 28.2767L237.882 32.4595ZM238.058 27.8207L232.411 31.5855L238.058 27.8207ZM237.69 27.2678L232.042 31.0326L237.69 27.2678ZM241.154 15.9472L242.8 22.5315L241.154 15.9472ZM236.965 19.3072L230.895 16.272L236.965 19.3072ZM243.166 31.971L249.779 30.4449L243.166 31.971ZM245.538 25.9966L249.303 31.6438L245.538 25.9966ZM266.037 43.514L260.514 47.4588L266.037 43.514ZM265.2 48.9999L269.296 54.4119L265.2 48.9999ZM265.618 42.7686L259.379 45.4421L265.618 42.7686ZM264.461 40.0702L270.699 37.3967L264.461 40.0702ZM264.558 38.1762L258.625 34.8801L264.558 38.1762ZM267.454 33.7193L271.219 39.3664L267.454 33.7193ZM266.398 34.8647L260.465 31.5686L266.398 34.8647ZM275.915 41.1903L270.022 37.823L275.915 41.1903ZM273.151 43.9818L276.187 50.0523L273.151 43.9818ZM275.694 41.5761L269.802 38.2088L275.694 41.5761ZM270.051 47.7028L263.532 45.8136L270.051 47.7028ZM198.151 10.7546L191.849 8.23398L198.151 10.7546ZM200.256 8.28251L203.748 14.1023L200.256 8.28251ZM198.221 15.9654L204.66 13.8192L198.221 15.9654ZM199.155 18.154L204.584 14.0818L199.155 18.154ZM198.593 17.0828L192.155 19.229L198.593 17.0828ZM169.516 27.8207L175.163 31.5855L169.516 27.8207ZM169.134 28.5469L175.435 31.0675L169.134 28.5469ZM169.884 27.2678L175.532 31.0326L169.884 27.2678ZM170.609 19.3072L176.679 16.272L170.609 19.3072ZM166.42 15.9472L164.774 22.5315L166.42 15.9472ZM165.893 15.8153L167.539 9.23099L165.893 15.8153ZM161.043 17.1587L165.46 22.3118L161.043 17.1587ZM159.818 23.2257L165.888 20.1905L159.818 23.2257ZM162.036 25.9966L158.271 31.6438L162.036 25.9966ZM160.116 23.8213L166.186 20.786L160.116 23.8213ZM164.408 31.971L157.795 30.4449L164.408 31.971ZM139.949 42.7856L146.187 45.4591L139.949 42.7856ZM139.548 43.4989L145.071 47.4438L139.548 43.4989ZM141.113 40.0702L147.351 42.7437L141.113 40.0702ZM141.016 38.1762L135.083 41.4722V41.4722L141.016 38.1762ZM138.12 33.7193L141.885 28.0722L138.12 33.7193ZM139.176 34.8647L145.109 31.5686L139.176 34.8647ZM241.681 15.8153L240.035 9.23099L241.681 15.8153ZM246.211 16.8847L241.794 22.0377L246.211 16.8847ZM246.531 17.1587L242.114 22.3118L246.531 17.1587ZM129.659 41.1903L135.552 37.823L129.659 41.1903ZM247.756 23.2257L241.686 20.1905L247.756 23.2257ZM129.864 41.5488L123.971 44.9161L129.864 41.5488ZM140.499 48.8575L136.671 54.4622L140.499 48.8575ZM169.692 32.4595L175.037 28.2767L169.692 32.4595ZM247.458 23.8213L241.388 20.786L247.458 23.8213ZM135.567 47.6567L129.09 49.6832L135.567 47.6567ZM294.787 148.136L300.474 151.84L320.974 120.368L315.287 116.664L309.6 112.96L289.1 144.432L294.787 148.136ZM315.287 116.664L310.242 121.204L314.742 126.204L319.787 121.664L324.832 117.124L320.332 112.124L315.287 116.664ZM319.787 121.664L313.261 123.528L315.261 130.528L321.787 128.664L328.313 126.799L326.313 119.799L319.787 121.664ZM321.787 128.664L316.988 133.463L317.488 133.963L322.287 129.164L327.086 124.365L326.586 123.865L321.787 128.664ZM322.287 129.164L327.764 133.172L357.764 92.1717L352.287 88.1639L346.81 84.1562L316.81 125.156L322.287 129.164ZM352.287 88.1639L346.785 92.1377L353.285 101.138L358.787 97.1639L364.289 93.1902L357.789 84.1902L352.287 88.1639ZM358.787 97.1639L352.3 99.1599L356.3 112.16L362.787 110.164L369.274 108.168L365.274 95.168L358.787 97.1639ZM362.787 110.164L356.034 110.839L358.034 130.839L364.787 130.164L371.54 129.489L369.54 109.489L362.787 110.164ZM364.787 130.164L359.573 125.819L354.573 131.819L359.787 136.164L365.001 140.509L370.001 134.509L364.787 130.164ZM359.787 136.164L363.679 141.724L388.679 124.224L384.787 118.664L380.895 113.104L355.895 130.604L359.787 136.164ZM384.787 118.664L378.461 121.124L381.961 130.124L388.287 127.664L394.612 125.204L391.112 116.204L384.787 118.664ZM388.287 127.664H381.5V144.164H388.287H395.074V127.664H388.287ZM388.287 144.164L381.632 142.833L378.132 160.333L384.787 161.664L391.442 162.995L394.942 145.495L388.287 144.164ZM384.787 161.664L379.988 156.865L375.988 160.865L380.787 165.664L385.586 170.463L389.586 166.463L384.787 161.664ZM380.787 165.664L378.066 159.446L370.066 162.946L372.787 169.164L375.507 175.382L383.507 171.882L380.787 165.664ZM372.787 169.164L373.966 175.848L399.466 171.348L398.287 164.664L397.107 157.98L371.607 162.48L372.787 169.164ZM398.287 164.664H391.5V170.164H398.287H405.074V164.664H398.287ZM398.287 170.164L391.848 168.018L388.348 178.518L394.787 180.664L401.226 182.81L404.726 172.31L398.287 170.164ZM394.787 180.664L389.207 176.801L375.707 196.301L381.287 200.164L386.867 204.027L400.367 184.527L394.787 180.664ZM381.287 200.164L376.488 195.365L372.488 199.365L377.287 204.164L382.086 208.963L386.086 204.963L381.287 200.164ZM377.287 204.164V197.377H365.787V204.164V210.951H377.287V204.164ZM365.787 204.164L364.084 210.734L391.084 217.734L392.787 211.164L394.49 204.594L367.49 197.594L365.787 204.164ZM392.787 211.164L386.549 208.49L383.549 215.49L389.787 218.164L396.025 220.837L399.025 213.837L392.787 211.164ZM389.787 218.164L385.529 212.879L367.529 227.379L371.787 232.664L376.045 237.949L394.045 223.449L389.787 218.164ZM371.787 232.664L368.42 226.771L361.42 230.771L364.787 236.664L368.154 242.557L375.154 238.557L371.787 232.664ZM364.787 236.664L361.295 230.844L356.295 233.844L359.787 239.664L363.279 245.484L368.279 242.484L364.787 236.664ZM359.787 239.664L361.881 233.208L324.881 221.208L322.787 227.664L320.693 234.12L357.693 246.12L359.787 239.664ZM322.787 227.664L319.752 221.593L317.752 222.593L320.787 228.664L323.822 234.734L325.822 233.734L322.787 227.664ZM320.787 228.664L323.147 222.3L293.486 211.3L291.126 217.664L288.766 224.027L318.427 235.027L320.787 228.664ZM89.787 116.664L84.7423 112.124L80.2423 117.124L85.287 121.664L90.3317 126.204L94.8317 121.204L89.787 116.664ZM85.287 121.664L78.7611 119.799L76.7611 126.799L83.287 128.664L89.8128 130.528L91.8128 123.528L85.287 121.664ZM83.287 128.664L78.4878 123.865L77.9878 124.365L82.787 129.164L87.5861 133.963L88.0861 133.463L83.287 128.664ZM82.787 129.164L88.2643 125.156L58.2643 84.1562L52.787 88.1639L47.3097 92.1717L77.3096 133.172L82.787 129.164ZM52.787 88.1639L47.2849 84.1902L40.7849 93.1902L46.287 97.1639L51.7891 101.138L58.2891 92.1377L52.787 88.1639ZM46.287 97.1639L39.8001 95.168L35.8001 108.168L42.287 110.164L48.7738 112.16L52.7738 99.1599L46.287 97.1639ZM42.287 110.164L35.5337 109.489L33.5337 129.489L40.287 130.164L47.0403 130.839L49.0403 110.839L42.287 110.164ZM40.287 130.164L35.0731 134.509L40.0731 140.509L45.287 136.164L50.5009 131.819L45.5009 125.819L40.287 130.164ZM45.287 136.164L49.1791 130.604L24.1791 113.104L20.287 118.664L16.3949 124.224L41.3949 141.724L45.287 136.164ZM20.287 118.664L13.9615 116.204L10.4615 125.204L16.787 127.664L23.1125 130.124L26.6125 121.124L20.287 118.664ZM16.787 127.664H10V144.164H16.787H23.574V127.664H16.787ZM16.787 144.164L10.1318 145.495L13.6318 162.995L20.287 161.664L26.9422 160.333L23.4422 142.833L16.787 144.164ZM20.287 161.664L15.4879 166.463L19.4879 170.463L24.287 165.664L29.0861 160.865L25.0861 156.865L20.287 161.664ZM24.287 165.664L21.5666 171.882L29.5666 175.382L32.287 169.164L35.0073 162.946L27.0073 159.446L24.287 165.664ZM32.287 169.164L33.4665 162.48L7.96647 157.98L6.78699 164.664L5.60751 171.348L31.1075 175.848L32.287 169.164ZM6.78699 164.664H-2.38419e-06V170.164H6.78699H13.574V164.664H6.78699ZM6.78699 170.164L0.348284 172.31L3.84828 182.81L10.287 180.664L16.7257 178.518L13.2257 168.018L6.78699 170.164ZM10.287 180.664L4.70678 184.527L18.2068 204.027L23.787 200.164L29.3672 196.301L15.8672 176.801L10.287 180.664ZM23.787 200.164L18.9879 204.963L22.9879 208.963L27.787 204.164L32.5861 199.365L28.5861 195.365L23.787 200.164ZM27.787 204.164V210.951H39.287V204.164V197.377H27.787V204.164ZM39.287 204.164L37.5837 197.594L10.5837 204.594L12.287 211.164L13.9903 217.734L40.9903 210.734L39.287 204.164ZM12.287 211.164L6.04876 213.837L9.04876 220.837L15.287 218.164L21.5252 215.49L18.5252 208.49L12.287 211.164ZM15.287 218.164L11.0293 223.449L29.0293 237.949L33.287 232.664L37.5447 227.379L19.5447 212.879L15.287 218.164ZM33.287 232.664L29.9197 238.557L36.9197 242.557L40.287 236.664L43.6543 230.771L36.6543 226.771L33.287 232.664ZM40.287 236.664L36.7951 242.484L41.7951 245.484L45.287 239.664L48.7789 233.844L43.7789 230.844L40.287 236.664ZM45.287 239.664L47.3808 246.12L84.3808 234.12L82.287 227.664L80.1931 221.208L43.1932 233.208L45.287 239.664ZM82.287 227.664L79.2517 233.734L81.2517 234.734L84.287 228.664L87.3222 222.593L85.3222 221.593L82.287 227.664ZM84.287 228.664L86.3469 235.131L118.347 224.938L116.287 218.471L114.227 212.004L82.227 222.197L84.287 228.664ZM89.787 116.664L84.4947 120.913L108.18 150.413L113.473 146.164L118.765 141.915L95.0792 112.415L89.787 116.664ZM151.787 99.4997L158.264 97.4732L142.044 45.6301L135.567 47.6567L129.09 49.6832L145.31 101.526L151.787 99.4997ZM129.864 41.5488L135.757 38.1815L135.552 37.823L129.659 41.1903L123.766 44.5576L123.971 44.9161L129.864 41.5488ZM128.787 37.906H135.574V36.5782H128.787H122V37.906H128.787ZM132.201 33.1639V39.9509H133.287V33.1639V26.377H132.201V33.1639ZM133.287 33.1639V39.9509H136.286V33.1639V26.377H133.287V33.1639ZM139.176 34.8647L133.243 38.1607L135.083 41.4722L141.016 38.1762L146.949 34.8801L145.109 31.5686L139.176 34.8647ZM141.113 40.0702L134.875 37.3967L133.711 40.112L139.949 42.7856L146.187 45.4591L147.351 42.7437L141.113 40.0702ZM140.499 48.8575L136.671 54.4622L153.959 66.2686L157.787 60.6639L161.615 55.0592L144.327 43.2528L140.499 48.8575ZM157.787 60.6639L164.4 62.1901L171.022 33.4972L164.408 31.971L157.795 30.4449L151.174 59.1378L157.787 60.6639ZM160.116 23.8213L166.186 20.786L165.888 20.1905L159.818 23.2257L153.747 26.261L154.045 26.8565L160.116 23.8213ZM161.043 17.1587L165.46 22.3118L165.78 22.0377L161.363 16.8847L156.946 11.7316L156.626 12.0057L161.043 17.1587ZM165.893 15.8153L164.246 22.3997L164.774 22.5315L166.42 15.9472L168.066 9.36283L167.539 9.23099L165.893 15.8153ZM171.287 22.1808H164.5V22.6354H171.287H178.074V22.1808H171.287ZM169.884 27.2678L164.237 23.5031L163.869 24.056L169.516 27.8207L175.163 31.5855L175.532 31.0326L169.884 27.2678ZM169.692 32.4595L164.347 36.6424L180.942 57.8468L186.287 53.6639L191.632 49.4811L175.037 28.2767L169.692 32.4595ZM186.287 53.6639L192.322 56.77L209.822 22.77L203.787 19.6639L197.752 16.5579L180.252 50.5579L186.287 53.6639ZM203.787 19.6639V12.877H202.174V19.6639V26.4509H203.787V19.6639ZM198.593 17.0828L205.032 14.9366L204.66 13.8192L198.221 15.9654L191.782 18.1117L192.155 19.229L198.593 17.0828ZM197.787 13.292H204.574V12.6433H197.787H191V13.292H197.787ZM200.256 8.28251L203.748 14.1023L204.779 13.4837L201.287 7.66394L197.795 1.84414L196.764 2.46271L200.256 8.28251ZM275.694 41.5761L281.587 44.9434L281.808 44.5576L275.915 41.1903L270.022 37.823L269.802 38.2088L275.694 41.5761ZM276.787 37.906H283.574V36.5782H276.787H270V37.906H276.787ZM273.373 33.1639V26.377H272.287V33.1639V39.9509H273.373V33.1639ZM272.287 33.1639V26.377H269.288V33.1639V39.9509H272.287V33.1639ZM266.398 34.8647L260.465 31.5686L258.625 34.8801L264.558 38.1762L270.491 41.4722L272.331 38.1607L266.398 34.8647ZM264.461 40.0702L258.223 42.7437L259.379 45.4421L265.618 42.7686L271.856 40.0951L270.699 37.3967L264.461 40.0702ZM265.2 48.9999L261.105 43.5879L245.691 55.252L249.787 60.6639L253.883 66.0759L269.296 54.4119L265.2 48.9999ZM249.787 60.6639L256.4 59.1378L249.779 30.4449L243.166 31.971L236.552 33.4972L243.174 62.1901L249.787 60.6639ZM247.458 23.8213L253.529 26.8565L253.827 26.261L247.756 23.2257L241.686 20.1905L241.388 20.786L247.458 23.8213ZM246.531 17.1587L250.948 12.0057L250.628 11.7316L246.211 16.8847L241.794 22.0377L242.114 22.3118L246.531 17.1587ZM241.681 15.8153L240.035 9.23099L239.508 9.36283L241.154 15.9472L242.8 22.5315L243.327 22.3997L241.681 15.8153ZM236.287 22.1808H229.5V22.6354H236.287H243.074V22.1808H236.287ZM237.69 27.2678L232.042 31.0326L232.411 31.5855L238.058 27.8207L243.705 24.056L243.337 23.5031L237.69 27.2678ZM237.882 32.4595L232.537 28.2767L215.942 49.4811L221.287 53.6639L226.632 57.8468L243.227 36.6424L237.882 32.4595ZM221.287 53.6639L227.322 50.5579L209.822 16.5579L203.787 19.6639L197.752 22.77L215.252 56.77L221.287 53.6639ZM203.787 19.6639V26.4509H205.4V19.6639V12.877H203.787V19.6639ZM208.981 17.0828L215.419 19.229L215.792 18.1117L209.353 15.9654L202.914 13.8192L202.542 14.9366L208.981 17.0828ZM209.787 13.292H216.574V12.6433H209.787H203V13.292H209.787ZM207.318 8.28251L210.81 2.46271L209.779 1.84414L206.287 7.66394L202.795 13.4837L203.826 14.1023L207.318 8.28251ZM255.039 99.4997L261.558 101.389L276.57 49.5921L270.051 47.7028L263.532 45.8136L248.521 97.6105L255.039 99.4997ZM281.317 231.164L276.705 236.143L296.675 254.643L301.287 249.664L305.899 244.685L285.93 226.185L281.317 231.164ZM301.287 249.664L295.446 246.207L280.946 270.707L286.787 274.164L292.628 277.621L307.128 253.121L301.287 249.664ZM286.787 274.164L280.672 277.108L287.172 290.608L293.287 287.664L299.402 284.72L292.902 271.22L286.787 274.164ZM293.287 287.664L288.81 282.563L256.337 311.063L260.813 316.164L265.29 321.265L297.764 292.765L293.287 287.664ZM260.813 316.164L266.691 312.77L260.917 302.77L255.039 306.164L249.162 309.558L254.936 319.558L260.813 316.164ZM255.039 306.164L248.932 303.205L241.179 319.205L247.287 322.164L253.395 325.123L261.147 309.123L255.039 306.164ZM247.287 322.164L251.955 317.237L242.455 308.237L237.787 313.164L233.119 318.091L242.619 327.091L247.287 322.164ZM237.787 313.164H231V328.664H237.787H244.574V313.164H237.787ZM237.787 328.664L234.997 322.477L200.623 337.977L203.413 344.164L206.203 350.351L240.577 334.851L237.787 328.664ZM203.413 344.164L206.089 337.927L169.963 322.427L167.287 328.664L164.611 334.901L200.737 350.401L203.413 344.164ZM167.287 328.664L174.042 329.318L175.542 313.818L168.787 313.164L162.032 312.51L160.532 328.01L167.287 328.664ZM168.787 313.164L164.247 308.119L154.247 317.119L158.787 322.164L163.327 327.209L173.327 318.209L168.787 313.164ZM158.787 322.164L164.781 318.98L156.281 302.98L150.287 306.164L144.293 309.348L152.793 325.348L158.787 322.164ZM150.287 306.164L144.046 303.497L139.772 313.497L146.013 316.164L152.254 318.831L156.528 308.831L150.287 306.164ZM146.013 316.164L150.485 311.058L117.944 282.558L113.473 287.664L109.001 292.77L141.541 321.27L146.013 316.164ZM113.473 287.664L119.885 289.888L123.699 278.888L117.287 276.664L110.875 274.44L107.06 285.44L113.473 287.664ZM117.287 276.664L123.285 273.488L109.785 247.988L103.787 251.164L97.7887 254.339L111.289 279.839L117.287 276.664ZM103.787 251.164L108.384 256.157L130.106 236.157L125.509 231.164L120.912 226.171L99.1899 246.171L103.787 251.164ZM209.423 10.7546L215.725 8.23398C214.761 5.82482 213.035 3.7977 210.81 2.46271L207.318 8.28251L203.826 14.1023C203.507 13.911 203.26 13.6205 203.122 13.2752L209.423 10.7546ZM209.787 12.6433H216.574C216.574 11.1329 216.286 9.63636 215.725 8.23398L209.423 10.7546L203.122 13.2752C203.041 13.0743 203 12.8598 203 12.6433H209.787ZM209.353 15.9654L215.792 18.1117C216.31 16.5576 216.574 14.9302 216.574 13.292H209.787H203C203 13.4712 202.971 13.6492 202.914 13.8192L209.353 15.9654ZM208.419 18.154L213.849 22.2262C214.53 21.318 215.06 20.306 215.419 19.229L208.981 17.0828L202.542 14.9366C202.644 14.6294 202.796 14.3408 202.99 14.0818L208.419 18.154ZM205.4 19.6639V26.4509C208.724 26.4509 211.854 24.8857 213.849 22.2262L208.419 18.154L202.99 14.0818C203.559 13.3233 204.451 12.877 205.4 12.877V19.6639ZM238.44 28.5469L232.139 31.0675C231.765 30.1327 231.916 29.0695 232.537 28.2767L237.882 32.4595L243.227 36.6424C245.587 33.6264 246.164 29.5822 244.742 26.0263L238.44 28.5469ZM238.058 27.8207L232.411 31.5855C232.303 31.4227 232.211 31.2491 232.139 31.0675L238.44 28.5469L244.742 26.0263C244.465 25.3354 244.118 24.6751 243.705 24.056L238.058 27.8207ZM236.287 22.6354H229.5C229.5 25.6241 230.385 28.5458 232.042 31.0326L237.69 27.2678L243.337 23.5031C243.165 23.2461 243.074 22.9442 243.074 22.6354H236.287ZM241.154 15.9472L239.508 9.36283C235.766 10.2983 232.62 12.8222 230.895 16.272L236.965 19.3072L243.036 22.3425C242.989 22.4369 242.903 22.5059 242.8 22.5315L241.154 15.9472ZM243.166 31.971L249.779 30.4449C249.885 30.9047 249.695 31.382 249.303 31.6438L245.538 25.9966L241.773 20.3495C237.468 23.2197 235.389 28.4553 236.552 33.4972L243.166 31.971ZM266.037 43.514L260.514 47.4588C259.63 46.2215 259.892 44.5055 261.105 43.5879L265.2 48.9999L269.296 54.4119C273.945 50.8935 274.949 44.3135 271.56 39.5691L266.037 43.514ZM265.618 42.7686L259.379 45.4421C259.684 46.1532 260.065 46.8293 260.514 47.4588L266.037 43.514L271.56 39.5691C271.677 39.7333 271.776 39.9096 271.856 40.0951L265.618 42.7686ZM264.287 39.2219H257.5C257.5 40.4327 257.746 41.6309 258.223 42.7437L264.461 40.0702L270.699 37.3967C270.947 37.9735 271.074 38.5944 271.074 39.2219H264.287ZM264.558 38.1762L258.625 34.8801C257.887 36.2083 257.5 37.7026 257.5 39.2219H264.287H271.074C271.074 40.0094 270.873 40.7839 270.491 41.4722L264.558 38.1762ZM267.454 33.7193L263.689 28.0722C262.351 28.9642 261.246 30.1629 260.465 31.5686L266.398 34.8647L272.331 38.1607C272.061 38.6455 271.68 39.0588 271.219 39.3664L267.454 33.7193ZM269.288 33.1639V26.377C267.295 26.377 265.347 26.9668 263.689 28.0722L267.454 33.7193L271.219 39.3664C270.647 39.7475 269.975 39.9509 269.288 39.9509V33.1639ZM275.787 34.1639L280.586 29.3648C278.673 27.4517 276.078 26.377 273.373 26.377V33.1639V39.9509C272.478 39.9509 271.62 39.5956 270.988 38.9631L275.787 34.1639ZM276.787 36.5782H283.574C283.574 33.8726 282.499 31.2779 280.586 29.3648L275.787 34.1639L270.988 38.9631C270.355 38.3305 270 37.4727 270 36.5782H276.787ZM275.915 41.1903L281.808 44.5576C282.965 42.5319 283.574 40.2391 283.574 37.906H276.787H270C270 37.8769 270.008 37.8483 270.022 37.823L275.915 41.1903ZM273.151 43.9818L276.187 50.0523C278.452 48.9197 280.331 47.1421 281.587 44.9434L275.694 41.5761L269.802 38.2088C269.875 38.0808 269.984 37.9773 270.116 37.9113L273.151 43.9818ZM273.151 43.9818L270.116 37.9113C266.915 39.5117 264.529 42.3764 263.532 45.8136L270.051 47.7028L276.57 49.5921C276.512 49.7922 276.373 49.9591 276.187 50.0523L273.151 43.9818ZM201.287 7.66394L205.527 12.9637C204.51 13.7774 203.064 13.7774 202.047 12.9637L206.287 7.66394L210.527 2.36419C206.586 -0.788066 200.988 -0.788066 197.047 2.36419L201.287 7.66394ZM198.151 10.7546L204.452 13.2752C204.314 13.6205 204.067 13.911 203.748 14.1023L200.256 8.28251L196.764 2.46271C194.539 3.7977 192.813 5.82482 191.849 8.23398L198.151 10.7546ZM197.787 12.6433H204.574C204.574 12.8598 204.533 13.0743 204.452 13.2752L198.151 10.7546L191.849 8.23398C191.288 9.63636 191 11.1329 191 12.6433H197.787ZM198.221 15.9654L204.66 13.8192C204.603 13.6492 204.574 13.4712 204.574 13.292H197.787H191C191 14.9302 191.264 16.5576 191.782 18.1117L198.221 15.9654ZM199.155 18.154L204.584 14.0818C204.778 14.3408 204.93 14.6294 205.032 14.9366L198.593 17.0828L192.155 19.229C192.514 20.306 193.044 21.318 193.725 22.2262L199.155 18.154ZM169.516 27.8207L163.869 24.056C163.456 24.6751 163.109 25.3354 162.832 26.0263L169.134 28.5469L175.435 31.0675C175.363 31.2491 175.271 31.4227 175.163 31.5855L169.516 27.8207ZM171.287 22.6354H164.5C164.5 22.9442 164.409 23.2461 164.237 23.5031L169.884 27.2678L175.532 31.0326C177.189 28.5458 178.074 25.6241 178.074 22.6354H171.287ZM170.609 19.3072L164.538 22.3425C164.513 22.2923 164.5 22.2369 164.5 22.1808H171.287H178.074C178.074 20.1296 177.596 18.1066 176.679 16.272L170.609 19.3072ZM166.42 15.9472L164.774 22.5315C164.671 22.5059 164.585 22.4369 164.538 22.3425L170.609 19.3072L176.679 16.272C174.954 12.8222 171.808 10.2983 168.066 9.36283L166.42 15.9472ZM164.663 15.6639V22.4509C164.522 22.4509 164.383 22.4337 164.246 22.3997L165.893 15.8153L167.539 9.23099C166.598 8.99585 165.632 8.87695 164.663 8.87695V15.6639ZM161.363 16.8847L165.78 22.0377C165.469 22.3044 165.072 22.4509 164.663 22.4509V15.6639V8.87695C161.832 8.87695 159.095 9.8895 156.946 11.7316L161.363 16.8847ZM159.287 20.9768H166.074C166.074 21.4901 165.85 21.9778 165.46 22.3118L161.043 17.1587L156.626 12.0057C154.007 14.2504 152.5 17.5275 152.5 20.9768H159.287ZM159.818 23.2257L165.888 20.1905C166.01 20.4346 166.074 20.7039 166.074 20.9768H159.287H152.5C152.5 22.8112 152.927 24.6203 153.747 26.261L159.818 23.2257ZM162.036 25.9966L165.801 20.3495C165.965 20.459 166.098 20.6095 166.186 20.786L160.116 23.8213L154.045 26.8565C155.013 28.7928 156.47 30.4429 158.271 31.6438L162.036 25.9966ZM164.408 31.971L171.022 33.4972C172.185 28.4553 170.106 23.2197 165.801 20.3495L162.036 25.9966L158.271 31.6438C157.879 31.382 157.689 30.9047 157.795 30.4449L164.408 31.971ZM139.949 42.7856L133.711 40.112C133.795 39.9153 133.901 39.7282 134.025 39.5541L139.548 43.4989L145.071 47.4438C145.513 46.8243 145.887 46.1589 146.187 45.4591L139.949 42.7856ZM141.287 39.2219H134.5C134.5 38.5944 134.627 37.9735 134.875 37.3967L141.113 40.0702L147.351 42.7437C147.828 41.6309 148.074 40.4327 148.074 39.2219H141.287ZM141.016 38.1762L135.083 41.4722C134.701 40.7839 134.5 40.0094 134.5 39.2219H141.287H148.074C148.074 37.7026 147.687 36.2083 146.949 34.8801L141.016 38.1762ZM138.12 33.7193L134.355 39.3664C133.894 39.0588 133.513 38.6455 133.243 38.1607L139.176 34.8647L145.109 31.5686C144.328 30.1629 143.223 28.9642 141.885 28.0722L138.12 33.7193ZM236.965 19.3072L230.895 16.272C229.978 18.1066 229.5 20.1296 229.5 22.1808H236.287H243.074C243.074 22.2369 243.061 22.2923 243.036 22.3425L236.965 19.3072ZM136.286 33.1639V39.9509C135.599 39.9509 134.927 39.7475 134.355 39.3664L138.12 33.7193L141.885 28.0722C140.227 26.9668 138.279 26.377 136.286 26.377V33.1639ZM242.911 15.6639V8.87695C241.942 8.87695 240.976 8.99585 240.035 9.23099L241.681 15.8153L243.327 22.3997C243.191 22.4337 243.052 22.4509 242.911 22.4509V15.6639ZM129.787 34.1639L134.586 38.9631C133.954 39.5956 133.096 39.9509 132.201 39.9509V33.1639V26.377C129.496 26.377 126.901 27.4517 124.988 29.3648L129.787 34.1639ZM202.174 19.6639V12.877C203.123 12.877 204.015 13.3233 204.584 14.0818L199.155 18.154L193.725 22.2262C195.72 24.8857 198.85 26.4509 202.174 26.4509V19.6639ZM246.211 16.8847L250.628 11.7316C248.479 9.8895 245.742 8.87695 242.911 8.87695V15.6639V22.4509C242.502 22.4509 242.105 22.3044 241.794 22.0377L246.211 16.8847ZM128.787 36.5782H135.574C135.574 37.4727 135.219 38.3305 134.586 38.9631L129.787 34.1639L124.988 29.3648C123.075 31.2779 122 33.8726 122 36.5782H128.787ZM248.287 20.9768H255.074C255.074 17.5275 253.567 14.2504 250.948 12.0057L246.531 17.1587L242.114 22.3118C241.724 21.9778 241.5 21.4901 241.5 20.9768H248.287ZM129.659 41.1903L135.552 37.823C135.566 37.8483 135.574 37.8769 135.574 37.906H128.787H122C122 40.2391 122.609 42.5319 123.766 44.5576L129.659 41.1903ZM247.756 23.2257L253.827 26.261C254.647 24.6203 255.074 22.8112 255.074 20.9768H248.287H241.5C241.5 20.7039 241.564 20.4346 241.686 20.1905L247.756 23.2257ZM132.451 43.9959L135.486 37.9254C135.6 37.9822 135.694 38.0713 135.757 38.1815L129.864 41.5488L123.971 44.9161C125.238 47.1326 127.132 48.9246 129.416 50.0663L132.451 43.9959ZM139.548 43.4989L134.025 39.5541C130.573 44.3869 131.767 51.1128 136.671 54.4622L140.499 48.8575L144.327 43.2528C145.705 44.1944 146.041 46.0852 145.071 47.4438L139.548 43.4989ZM169.134 28.5469L162.832 26.0263C161.41 29.5822 161.987 33.6264 164.347 36.6424L169.692 32.4595L175.037 28.2767C175.658 29.0695 175.809 30.1327 175.435 31.0675L169.134 28.5469ZM245.538 25.9966L249.303 31.6438C251.104 30.4429 252.561 28.7928 253.529 26.8565L247.458 23.8213L241.388 20.786C241.476 20.6095 241.609 20.459 241.773 20.3495L245.538 25.9966ZM135.567 47.6567L142.044 45.6301C140.995 42.2777 138.628 39.4963 135.486 37.9254L132.451 43.9959L129.416 50.0663C129.259 49.9882 129.142 49.8499 129.09 49.6832L135.567 47.6567ZM203.413 82.7253L207.608 69.8157L203.413 68.4528L199.219 69.8157L203.413 82.7253ZM260.813 101.376L271.795 93.3972L269.203 89.8291L265.008 88.4662L260.813 101.376ZM296.289 150.203H309.863V145.793L307.27 142.225L296.289 150.203ZM296.289 210.558L307.27 218.536L309.863 214.968V210.558H296.289ZM260.813 259.385L265.008 272.295L269.203 270.932L271.795 267.364L260.813 259.385ZM203.413 278.036L199.219 290.945L203.413 292.308L207.608 290.945L203.413 278.036ZM146.013 259.385L135.031 267.364L137.624 270.932L141.818 272.295L146.013 259.385ZM110.538 210.558H96.9637V214.968L99.5561 218.536L110.538 210.558ZM110.538 150.203L99.5561 142.225L96.9637 145.793V150.203H110.538ZM146.013 101.376L141.818 88.4662L137.624 89.8291L135.031 93.3972L146.013 101.376ZM294.787 148.136L305.768 140.158V140.158L294.787 148.136ZM291.126 217.664L302.107 225.643H302.107L291.126 217.664ZM116.287 218.471L105.305 226.449V226.449L116.287 218.471ZM113.473 146.164L124.454 154.143L124.454 154.143L113.473 146.164ZM151.787 99.4997L147.592 86.5901V86.5901L151.787 99.4997ZM255.039 99.4997L259.234 86.5901V86.5901L255.039 99.4997ZM281.317 231.164L270.336 223.185H270.336L281.317 231.164ZM125.509 231.164L136.491 223.185L125.509 231.164ZM296.289 150.203H282.715V210.558H296.289H309.863V150.203H296.289ZM260.813 259.385L256.619 246.475L199.219 265.126L203.413 278.036L207.608 290.945L265.008 272.295L260.813 259.385ZM203.413 278.036L207.608 265.126L150.208 246.475L146.013 259.385L141.818 272.295L199.219 290.945L203.413 278.036ZM110.538 210.558H124.112V180.38H110.538H96.9637V210.558H110.538ZM110.538 180.38H124.112V150.203H110.538H96.9637V180.38H110.538ZM260.813 101.376L249.832 109.354L283.805 156.115L294.787 148.136L305.768 140.158L271.795 93.3972L260.813 101.376ZM294.787 148.136L283.805 156.115L285.307 158.182L296.289 150.203L307.27 142.225L305.768 140.158L294.787 148.136ZM296.289 210.558L285.307 202.579L280.144 209.685L291.126 217.664L302.107 225.643L307.27 218.536L296.289 210.558ZM116.287 218.471L127.269 210.492L121.519 202.579L110.538 210.558L99.5561 218.536L105.305 226.449L116.287 218.471ZM110.538 150.203L121.519 158.182L124.454 154.143L113.473 146.164L102.491 138.185L99.5561 142.225L110.538 150.203ZM113.473 146.164L124.454 154.143L156.995 109.354L146.013 101.376L135.031 93.3972L102.491 138.185L113.473 146.164ZM146.013 101.376L150.208 114.285L155.982 112.409L151.787 99.4997L147.592 86.5901L141.818 88.4662L146.013 101.376ZM151.787 99.4997L155.982 112.409L207.608 95.635L203.413 82.7253L199.219 69.8157L147.592 86.5901L151.787 99.4997ZM203.413 82.7253L199.219 95.635L250.845 112.409L255.039 99.4997L259.234 86.5901L207.608 69.8157L203.413 82.7253ZM255.039 99.4997L250.845 112.409L256.619 114.285L260.813 101.376L265.008 88.4662L259.234 86.5901L255.039 99.4997ZM291.126 217.664L280.144 209.685L270.336 223.185L281.317 231.164L292.299 239.143L302.107 225.643L291.126 217.664ZM281.317 231.164L270.336 223.185L249.832 251.406L260.813 259.385L271.795 267.364L292.299 239.143L281.317 231.164ZM146.013 259.385L156.995 251.406L136.491 223.185L125.509 231.164L114.528 239.143L135.031 267.364L146.013 259.385ZM125.509 231.164L136.491 223.185L127.269 210.492L116.287 218.471L105.305 226.449L114.528 239.143L125.509 231.164Z" fill="url(#paint0_linear_3592_40)" fill-opacity="0.4" mask="url(#path-1-outside-1_3592_40)"/>
<defs>
<linearGradient id="paint0_linear_3592_40" x1="249.706" y1="88.4147" x2="247.071" y2="265.149" gradientUnits="userSpaceOnUse">
<stop stop-color="#E8F5FF"/>
<stop offset="0.355769" stop-color="#2F95ED"/>
<stop offset="1" stop-color="#3365EF"/>
</linearGradient>
</defs>
</svg>
