<svg width="91" height="94" viewBox="0 0 91 94" fill="none" xmlns="http://www.w3.org/2000/svg">
<path d="M82.0695 61.1267C81.965 61.1265 81.8608 61.1368 81.7583 61.1573L61.119 65.1362C60.6972 65.2387 60.3242 65.4845 60.0637 65.8315C59.8031 66.1786 59.6713 66.6054 59.6906 67.039L59.7365 69.0284V69.8344L58.9357 69.9365C58.3694 70.0079 57.7828 70.0742 57.0839 70.1507L56.0637 70.2578V56.2296L57.1349 56.4387C58.9765 56.806 60.8741 57.1274 62.7717 57.4029C67.3636 58.067 71.9927 58.4419 76.6316 58.5251H76.7541L78.2844 23.5514H78.2181C72.7343 23.5514 65.4652 21.511 56.635 17.43L56.1249 17.1903V14.7111C56.1384 14.0361 55.9194 13.3769 55.5046 12.8441C55.0899 12.3114 54.5046 11.9374 53.8468 11.785C53.1891 11.6325 52.4989 11.7108 51.8921 12.0067C51.2852 12.3026 50.7985 12.7982 50.5136 13.4103L50.0851 14.2316L49.2689 13.7929C46.9938 12.5686 45.5961 11.7269 45.5808 11.7167L45.4277 11.6249L42.5099 26.7958L42.3109 27.816L41.3315 27.4946C39.745 26.9386 37.9188 26.204 35.8783 25.296L32.8176 23.8677V20.0163C32.8342 19.6185 32.7701 19.2214 32.6292 18.8489C32.4884 18.4764 32.2737 18.1363 31.998 17.8489C31.7224 17.5616 31.3915 17.3329 31.0252 17.1767C30.6589 17.0205 30.2648 16.94 29.8666 16.94C29.4684 16.94 29.0743 17.0205 28.708 17.1767C28.3417 17.3329 28.0108 17.5616 27.7351 17.8489C27.4595 18.1363 27.2448 18.4764 27.1039 18.8489C26.9631 19.2214 26.899 19.6185 26.9156 20.0163V20.9804L25.5994 20.2867C20.9472 17.8024 19.9167 16.8536 19.881 16.8332L19.7229 16.7414L11.561 54.5717L11.6375 54.6125C16.5857 57.4998 27.3339 61.2747 27.3339 61.2747L27.293 62.2235V68.7632L29.4916 69.7834L28.4714 69.6406C26.9717 69.4314 25.5943 69.1866 24.3905 68.9213C21.7838 68.3449 18.4323 67.3298 17.2743 65.7331C17.0792 65.4835 16.9553 65.1857 16.9158 64.8713C16.8763 64.557 16.9226 64.2378 17.0499 63.9477C17.1679 63.5892 17.2071 63.2094 17.1648 62.8344C17.1226 62.4593 16.9998 62.0978 16.805 61.7746C16.6201 61.4691 16.372 61.2068 16.0772 61.0053C15.7824 60.8038 15.4479 60.6678 15.0961 60.6064C14.7285 60.5459 14.3566 60.5151 13.9841 60.5146C11.6222 60.5146 9.62766 61.8664 8.37277 64.3303C7.50075 66.1786 7.14807 68.2294 7.35253 70.2629C7.56428 72.6972 8.3416 75.0484 9.62256 77.1291C11.2752 79.8103 13.6375 81.9819 16.4479 83.4036C19.7943 85.1278 23.8497 86.0052 28.502 86.0052H70.3317H70.4235C71.9233 85.8623 73.2853 84.4136 74.076 82.9802V82.9394L74.1066 82.9036L79.4118 75.308L79.5342 75.1346L79.7179 75.0325L82.5643 73.5022L82.6561 73.4512L82.7327 73.39C83.0121 73.1607 83.2365 72.8717 83.3892 72.5441C83.542 72.2165 83.6192 71.8588 83.6152 71.4974V62.8254C83.6306 62.3965 83.4774 61.9785 83.1886 61.661C82.8997 61.3436 82.498 61.1518 82.0695 61.1267ZM50.2994 71.0077L33.1033 70.217L33.1441 62.5653L44.7187 63.2743L45.6267 53.4239L50.4167 54.7298L50.2994 71.0077Z" stroke="url(#paint1_linear_3592_191)" stroke-opacity="0.7" stroke-width="12.296"/>
<path d="M82.0695 61.1267C81.965 61.1265 81.8608 61.1368 81.7583 61.1573L61.119 65.1362C60.6972 65.2387 60.3242 65.4845 60.0637 65.8315C59.8031 66.1786 59.6713 66.6054 59.6906 67.039L59.7365 69.0284V69.8344L58.9357 69.9365C58.3694 70.0079 57.7828 70.0742 57.0839 70.1507L56.0637 70.2578V56.2296L57.1349 56.4387C58.9765 56.806 60.8741 57.1274 62.7717 57.4029C67.3636 58.067 71.9927 58.4419 76.6316 58.5251H76.7541L78.2844 23.5514H78.2181C72.7343 23.5514 65.4652 21.511 56.635 17.43L56.1249 17.1903V14.7111C56.1384 14.0361 55.9194 13.3769 55.5046 12.8441C55.0899 12.3114 54.5046 11.9374 53.8468 11.785C53.1891 11.6325 52.4989 11.7108 51.8921 12.0067C51.2852 12.3026 50.7985 12.7982 50.5136 13.4103L50.0851 14.2316L49.2689 13.7929C46.9938 12.5686 45.5961 11.7269 45.5808 11.7167L45.4277 11.6249L42.5099 26.7958L42.3109 27.816L41.3315 27.4946C39.745 26.9386 37.9188 26.204 35.8783 25.296L32.8176 23.8677V20.0163C32.8342 19.6185 32.7701 19.2214 32.6292 18.8489C32.4884 18.4764 32.2737 18.1363 31.998 17.8489C31.7224 17.5616 31.3915 17.3329 31.0252 17.1767C30.6589 17.0205 30.2648 16.94 29.8666 16.94C29.4684 16.94 29.0743 17.0205 28.708 17.1767C28.3417 17.3329 28.0108 17.5616 27.7351 17.8489C27.4595 18.1363 27.2448 18.4764 27.1039 18.8489C26.9631 19.2214 26.899 19.6185 26.9156 20.0163V20.9804L25.5994 20.2867C20.9472 17.8024 19.9167 16.8536 19.881 16.8332L19.7229 16.7414L11.561 54.5717L11.6375 54.6125C16.5857 57.4998 27.3339 61.2747 27.3339 61.2747L27.293 62.2235V68.7632L29.4916 69.7834L28.4714 69.6406C26.9717 69.4314 25.5943 69.1866 24.3905 68.9213C21.7838 68.3449 18.4323 67.3298 17.2743 65.7331C17.0792 65.4835 16.9553 65.1857 16.9158 64.8713C16.8763 64.557 16.9226 64.2378 17.0499 63.9477C17.1679 63.5892 17.2071 63.2094 17.1648 62.8344C17.1226 62.4593 16.9998 62.0978 16.805 61.7746C16.6201 61.4691 16.372 61.2068 16.0772 61.0053C15.7824 60.8038 15.4479 60.6678 15.0961 60.6064C14.7285 60.5459 14.3566 60.5151 13.9841 60.5146C11.6222 60.5146 9.62766 61.8664 8.37277 64.3303C7.50075 66.1786 7.14807 68.2294 7.35253 70.2629C7.56428 72.6972 8.3416 75.0484 9.62256 77.1291C11.2752 79.8103 13.6375 81.9819 16.4479 83.4036C19.7943 85.1278 23.8497 86.0052 28.502 86.0052H70.3317H70.4235C71.9233 85.8623 73.2853 84.4136 74.076 82.9802V82.9394L74.1066 82.9036L79.4118 75.308L79.5342 75.1346L79.7179 75.0325L82.5643 73.5022L82.6561 73.4512L82.7327 73.39C83.0121 73.1607 83.2365 72.8717 83.3892 72.5441C83.542 72.2165 83.6192 71.8588 83.6152 71.4974V62.8254C83.6306 62.3965 83.4774 61.9785 83.1886 61.661C82.8997 61.3436 82.498 61.1518 82.0695 61.1267ZM50.2994 71.0077L33.1033 70.217L33.1441 62.5653L44.7187 63.2743L45.6267 53.4239L50.4167 54.7298L50.2994 71.0077Z" fill="url(#paint0_linear_3592_191)"/>
<defs>
<linearGradient id="paint0_linear_3592_191" x1="64.4767" y1="13.7916" x2="63.5464" y2="81.0997" gradientUnits="userSpaceOnUse">
<stop offset="0.0480769" stop-color="#7EAFEB"/>
<stop offset="0.318342" stop-color="#A4CBFF"/>
<stop offset="1" stop-color="#3195FF"/>
</linearGradient>
<linearGradient id="paint1_linear_3592_191" x1="64.4767" y1="13.7916" x2="63.5464" y2="81.0997" gradientUnits="userSpaceOnUse">
<stop stop-color="#6AB0F6"/>
<stop offset="0.269231" stop-color="#8ACEFF"/>
<stop offset="1" stop-color="#3365EF"/>
</linearGradient>
</defs>
</svg>
