<svg width="211" height="117" viewBox="0 0 211 117" fill="none" xmlns="http://www.w3.org/2000/svg">
<path d="M39.7698 56.062L67.4998 32.06C67.5372 32.0276 67.5942 32.0339 67.6237 32.0735L93.8166 67.2818C93.8432 67.3175 93.8377 67.3677 93.804 67.3969L61.8309 95.0716C61.7902 95.1068 61.7275 95.096 61.7011 95.0491L39.7514 56.1682C39.7315 56.1329 39.7392 56.0885 39.7698 56.062Z" fill="url(#paint0_linear_3600_4)"/>
<path d="M172.551 56.062L144.821 32.06C144.784 32.0276 144.727 32.0339 144.698 32.0735L118.505 67.2818C118.478 67.3175 118.484 67.3677 118.517 67.3969L150.49 95.0716C150.531 95.1068 150.594 95.096 150.62 95.0491L172.57 56.1682C172.59 56.1329 172.582 56.0885 172.551 56.062Z" fill="url(#paint1_linear_3600_4)"/>
<path d="M6.76983 25.062L34.4998 1.05993C34.5372 1.02756 34.5942 1.0338 34.6237 1.07348L60.8166 36.2817C60.8432 36.3174 60.8377 36.3677 60.804 36.3968L28.8309 64.0716C28.7902 64.1068 28.7275 64.0959 28.7011 64.0491L6.75142 25.1681C6.73151 25.1329 6.73922 25.0885 6.76983 25.062Z" fill="url(#paint2_linear_3600_4)"/>
<path d="M203.873 24.062L176.143 0.0599328C176.105 0.0275643 176.048 0.0337975 176.019 0.0734797L149.826 35.2817C149.799 35.3174 149.805 35.3677 149.839 35.3968L181.812 63.0716C181.852 63.1068 181.915 63.0959 181.941 63.0491L203.891 24.1681C203.911 24.1329 203.903 24.0885 203.873 24.062Z" fill="url(#paint3_linear_3600_4)"/>
<path d="M73.7452 34.117C73.7475 34.0592 73.8055 34.0206 73.8597 34.0406L106.216 46.0074C106.235 46.0142 106.255 46.0145 106.273 46.008L140.887 34.039C140.942 34.0199 141 34.061 141 34.1194V102.205C141 102.239 140.98 102.27 140.948 102.284L106.278 116.986C106.257 116.995 106.233 116.995 106.212 116.986L71.0546 102.285C71.0218 102.271 71.0009 102.238 71.0024 102.203L73.7452 34.117Z" fill="url(#paint4_linear_3600_4)"/>
<path d="M73.7452 34.117C73.7475 34.0592 73.8055 34.0206 73.8597 34.0406L106.216 46.0074C106.235 46.0142 106.255 46.0145 106.273 46.008L140.887 34.039C140.942 34.0199 141 34.061 141 34.1194V102.205C141 102.239 140.98 102.27 140.948 102.284L106.278 116.986C106.257 116.995 106.233 116.995 106.212 116.986L71.0546 102.285C71.0218 102.271 71.0009 102.238 71.0024 102.203L73.7452 34.117Z" fill="#1140FF" fill-opacity="0.2"/>
<path d="M196.108 61.4696L175.421 17.0857C175.4 17.0399 175.343 17.0227 175.3 17.0487L139.897 38.3129C139.86 38.3354 139.845 38.3824 139.864 38.4218L163.712 89.5878C163.736 89.6391 163.803 89.6532 163.845 89.616L196.087 61.5698C196.116 61.5449 196.125 61.504 196.108 61.4696Z" fill="url(#paint5_linear_3600_4)"/>
<path d="M196.108 61.4696L175.421 17.0857C175.4 17.0399 175.343 17.0227 175.3 17.0487L139.897 38.3129C139.86 38.3354 139.845 38.3824 139.864 38.4218L163.712 89.5878C163.736 89.6391 163.803 89.6532 163.845 89.616L196.087 61.5698C196.116 61.5449 196.125 61.504 196.108 61.4696Z" fill="#1140FF" fill-opacity="0.2"/>
<path d="M15.9811 61.0116L36.4552 17.0855C36.4765 17.0398 36.5328 17.0226 36.576 17.0485L71.9959 38.2716C72.0333 38.294 72.0477 38.341 72.0293 38.3805L48.4266 89.0188C48.4027 89.07 48.3365 89.0842 48.2938 89.0472L16.0026 61.1119C15.9738 61.087 15.9651 61.046 15.9811 61.0116Z" fill="url(#paint6_linear_3600_4)"/>
<path d="M15.9811 61.0116L36.4552 17.0855C36.4765 17.0398 36.5328 17.0226 36.576 17.0485L71.9959 38.2716C72.0333 38.294 72.0477 38.341 72.0293 38.3805L48.4266 89.0188C48.4027 89.07 48.3365 89.0842 48.2938 89.0472L16.0026 61.1119C15.9738 61.087 15.9651 61.046 15.9811 61.0116Z" fill="#1140FF" fill-opacity="0.2"/>
<path d="M51 83.5L48.5 89L16 61L18 56.5L51 83.5Z" fill="url(#paint7_linear_3600_4)"/>
<path d="M161 84L163.5 89.5L196 61.5L194 57L161 84Z" fill="url(#paint8_linear_3600_4)"/>
<path d="M106 110.75L141 96.1667V102L106 117L71 102L71.2031 96.1666L106 110.75Z" fill="url(#paint9_linear_3600_4)"/>
<path d="M159 80L150.5 95L141 87V82L149.567 88.1948L157.5 76.5L159 80Z" fill="url(#paint10_linear_3600_4)"/>
<path d="M53 79.5L62 95L72 86.5V81.5L63.4325 87.6948L55 75.5L53 79.5Z" fill="url(#paint11_linear_3600_4)"/>
<path d="M204 24L190 48.5L187.5 43L200 21L204 24Z" fill="url(#paint12_linear_3600_4)"/>
<path d="M7 25L21 49.5L23.5 44L11 22L7 25Z" fill="url(#paint13_linear_3600_4)"/>
<defs>
<linearGradient id="paint0_linear_3600_4" x1="79.729" y1="64.294" x2="55.602" y2="85.2599" gradientUnits="userSpaceOnUse">
<stop offset="0.293269" stop-color="#3177FA"/>
<stop offset="1" stop-color="#75A5E9"/>
</linearGradient>
<linearGradient id="paint1_linear_3600_4" x1="132.592" y1="64.294" x2="156.719" y2="85.2599" gradientUnits="userSpaceOnUse">
<stop offset="0.293269" stop-color="#3177FA"/>
<stop offset="1" stop-color="#75A5E9"/>
</linearGradient>
<linearGradient id="paint2_linear_3600_4" x1="46.729" y1="33.294" x2="22.602" y2="54.2599" gradientUnits="userSpaceOnUse">
<stop offset="0.293269" stop-color="#3177FA"/>
<stop offset="1" stop-color="#75A5E9"/>
</linearGradient>
<linearGradient id="paint3_linear_3600_4" x1="163.914" y1="32.294" x2="188.041" y2="53.2599" gradientUnits="userSpaceOnUse">
<stop offset="0.293269" stop-color="#3177FA"/>
<stop offset="1" stop-color="#75A5E9"/>
</linearGradient>
<linearGradient id="paint4_linear_3600_4" x1="89.415" y1="55.6772" x2="89.286" y2="113.704" gradientUnits="userSpaceOnUse">
<stop stop-color="#87BFFF"/>
<stop offset="0.706731" stop-color="#508EF1"/>
</linearGradient>
<linearGradient id="paint5_linear_3600_4" x1="154.562" y1="44.2739" x2="172.464" y2="82.9616" gradientUnits="userSpaceOnUse">
<stop stop-color="#87BFFF"/>
<stop offset="0.706731" stop-color="#508EF1"/>
</linearGradient>
<linearGradient id="paint6_linear_3600_4" x1="57.3822" y1="44.1248" x2="39.6631" y2="82.4141" gradientUnits="userSpaceOnUse">
<stop stop-color="#87BFFF"/>
<stop offset="0.706731" stop-color="#508EF1"/>
</linearGradient>
<linearGradient id="paint7_linear_3600_4" x1="32.5" y1="60" x2="32.5" y2="87.6507" gradientUnits="userSpaceOnUse">
<stop stop-color="#DCEEFC"/>
<stop offset="1" stop-color="#C4CEF1"/>
</linearGradient>
<linearGradient id="paint8_linear_3600_4" x1="179.5" y1="60.5" x2="179.5" y2="88.1507" gradientUnits="userSpaceOnUse">
<stop stop-color="#DCEEFC"/>
<stop offset="1" stop-color="#C4CEF1"/>
</linearGradient>
<linearGradient id="paint9_linear_3600_4" x1="106.602" y1="89.4528" x2="106.602" y2="113.318" gradientUnits="userSpaceOnUse">
<stop stop-color="#DCEEFC"/>
<stop offset="1" stop-color="#C4CEF1"/>
</linearGradient>
<linearGradient id="paint10_linear_3600_4" x1="149.737" y1="79.067" x2="149.737" y2="91.4411" gradientUnits="userSpaceOnUse">
<stop stop-color="#DCEEFC"/>
<stop offset="1" stop-color="#C4CEF1"/>
</linearGradient>
<linearGradient id="paint11_linear_3600_4" x1="63.2634" y1="78.567" x2="63.2634" y2="90.9411" gradientUnits="userSpaceOnUse">
<stop stop-color="#DCEEFC"/>
<stop offset="1" stop-color="#C4CEF1"/>
</linearGradient>
<linearGradient id="paint12_linear_3600_4" x1="196.75" y1="24" x2="196.75" y2="48.1944" gradientUnits="userSpaceOnUse">
<stop stop-color="#DCEEFC"/>
<stop offset="1" stop-color="#C4CEF1"/>
</linearGradient>
<linearGradient id="paint13_linear_3600_4" x1="14.25" y1="25" x2="14.25" y2="49.1944" gradientUnits="userSpaceOnUse">
<stop stop-color="#DCEEFC"/>
<stop offset="1" stop-color="#C4CEF1"/>
</linearGradient>
</defs>
</svg>
