<svg width="417" height="186" viewBox="0 0 417 186" fill="none" xmlns="http://www.w3.org/2000/svg">
<path d="M90.7573 115.357L19.5271 131.405C21.5419 135.757 24.6187 139.532 28.4744 142.384L35.3836 147.494L52.1637 157.464L102.157 140.828L90.7573 115.357Z" fill="url(#paint0_linear_3600_5)"/>
<path d="M20.8167 134.127L88.6264 118.869L86.6059 113.231L18.2815 129.093L20.8167 134.127Z" fill="url(#paint1_linear_3600_5)"/>
<path d="M85.4231 97.1954L13.305 85.7819C13.5687 90.5703 15.0323 95.2155 17.5612 99.2902L22.0927 106.592L33.9996 122.058L86.6021 125.077L85.4231 97.1954Z" fill="url(#paint2_linear_3600_5)"/>
<path d="M13.4974 88.7881L82.1451 99.672L82.3516 93.686L13.0024 83.1732L13.4974 88.7881Z" fill="url(#paint3_linear_3600_5)"/>
<path d="M85.0176 81.5063L25.5358 39.16C23.6387 43.5644 22.8797 48.3752 23.3285 53.1498L24.1327 61.7055L27.9026 80.8568L73.6522 106.993L85.0176 81.5063Z" fill="url(#paint4_linear_3600_5)"/>
<path d="M24.3691 41.9373L80.9797 82.2634L83.8314 76.9963L26.4273 36.6898L24.3691 41.9373Z" fill="url(#paint5_linear_3600_5)"/>
<path d="M100.37 67.1807L57.4405 8.1184C54.2414 11.691 51.992 16.0108 50.8994 20.6802L48.9414 29.0476L46.4259 48.4037L81.4902 87.731L100.37 67.1807Z" fill="url(#paint6_linear_3600_5)"/>
<path d="M55.4509 10.3805L96.3006 66.6145L100.679 62.5274L59.0709 6.05977L55.4509 10.3805Z" fill="url(#paint7_linear_3600_5)"/>
<path d="M119.154 115.355L66.4487 127.23C67.9394 130.45 70.216 133.243 73.069 135.353L78.1813 139.134L90.5973 146.512L127.589 134.202L119.154 115.355Z" fill="url(#paint8_linear_3600_5)"/>
<path d="M67.4029 129.244L117.577 117.954L116.082 113.782L65.527 125.519L67.4029 129.244Z" fill="url(#paint9_linear_3600_5)"/>
<path d="M115.207 101.917L61.8448 93.4722C62.04 97.0152 63.1229 100.452 64.9941 103.467L68.347 108.87L77.1573 120.314L116.079 122.547L115.207 101.917Z" fill="url(#paint10_linear_3600_5)"/>
<path d="M61.9872 95.6965L112.781 103.75L112.934 99.3206L61.6209 91.5419L61.9872 95.6965Z" fill="url(#paint11_linear_3600_5)"/>
<path d="M114.907 90.3085L70.8948 58.9754C69.4911 62.2344 68.9294 65.794 69.2615 69.3268L69.8566 75.6574L72.646 89.828L118 117.5L114.907 90.3085Z" fill="url(#paint12_linear_3600_5)"/>
<path d="M70.0316 61.0304L111.919 90.8687L114.029 86.9714L71.5545 57.1477L70.0316 61.0304Z" fill="url(#paint13_linear_3600_5)"/>
<path d="M126.266 79.7087L94.5017 36.007C92.1346 38.6505 90.4703 41.8468 89.6618 45.3018L88.213 51.4931L86.3517 65.8151L112.297 94.9144L126.266 79.7087Z" fill="url(#paint14_linear_3600_5)"/>
<path d="M93.0296 37.6807L123.255 79.2897L126.495 76.2656L95.7081 34.4837L93.0296 37.6807Z" fill="url(#paint15_linear_3600_5)"/>
<path d="M325.774 115.357L397.004 131.405C394.989 135.757 391.912 139.532 388.056 142.384L381.147 147.494L364.367 157.464L314.373 140.828L325.774 115.357Z" fill="url(#paint16_linear_3600_5)"/>
<path d="M395.714 134.127L327.905 118.869L329.925 113.231L398.249 129.093L395.714 134.127Z" fill="url(#paint17_linear_3600_5)"/>
<path d="M331.108 97.1954L403.226 85.7819C402.962 90.5703 401.499 95.2155 398.97 99.2902L394.438 106.592L382.531 122.058L329.929 125.077L331.108 97.1954Z" fill="url(#paint18_linear_3600_5)"/>
<path d="M403.033 88.7881L334.386 99.672L334.179 93.686L403.528 83.1732L403.033 88.7881Z" fill="url(#paint19_linear_3600_5)"/>
<path d="M331.513 81.5063L390.995 39.16C392.892 43.5644 393.651 48.3752 393.202 53.1498L392.398 61.7055L388.628 80.8568L342.879 106.993L331.513 81.5063Z" fill="url(#paint20_linear_3600_5)"/>
<path d="M392.162 41.9373L335.551 82.2634L332.7 76.9963L390.104 36.6898L392.162 41.9373Z" fill="url(#paint21_linear_3600_5)"/>
<path d="M316.161 67.1807L359.09 8.1184C362.289 11.691 364.539 16.0108 365.632 20.6802L367.59 29.0476L370.105 48.4037L335.041 87.731L316.161 67.1807Z" fill="url(#paint22_linear_3600_5)"/>
<path d="M361.08 10.3805L320.23 66.6145L315.852 62.5274L357.46 6.05977L361.08 10.3805Z" fill="url(#paint23_linear_3600_5)"/>
<path d="M297.377 115.355L350.082 127.23C348.591 130.45 346.315 133.243 343.462 135.353L338.35 139.134L325.934 146.512L288.942 134.202L297.377 115.355Z" fill="url(#paint24_linear_3600_5)"/>
<path d="M349.128 129.244L298.954 117.954L300.449 113.782L351.004 125.519L349.128 129.244Z" fill="url(#paint25_linear_3600_5)"/>
<path d="M301.324 101.917L354.686 93.4722C354.491 97.0152 353.408 100.452 351.537 103.467L348.184 108.87L339.374 120.314L300.452 122.547L301.324 101.917Z" fill="url(#paint26_linear_3600_5)"/>
<path d="M354.544 95.6965L303.75 103.75L303.597 99.3206L354.91 91.5419L354.544 95.6965Z" fill="url(#paint27_linear_3600_5)"/>
<path d="M301.624 90.3085L345.636 58.9754C347.04 62.2344 347.601 65.794 347.269 69.3268L346.674 75.6574L343.885 89.828L298.531 117.5L301.624 90.3085Z" fill="url(#paint28_linear_3600_5)"/>
<path d="M346.499 61.0304L304.612 90.8687L302.502 86.9714L344.976 57.1477L346.499 61.0304Z" fill="url(#paint29_linear_3600_5)"/>
<path d="M290.265 79.7087L322.029 36.007C324.396 38.6505 326.061 41.8468 326.869 45.3018L328.318 51.4931L330.179 65.8151L304.234 94.9144L290.265 79.7087Z" fill="url(#paint30_linear_3600_5)"/>
<path d="M323.501 37.6807L293.276 79.2897L290.036 76.2656L320.823 34.4837L323.501 37.6807Z" fill="url(#paint31_linear_3600_5)"/>
<defs>
<linearGradient id="paint0_linear_3600_5" x1="19.5359" y1="131.432" x2="77.1754" y2="174.345" gradientUnits="userSpaceOnUse">
<stop stop-color="#4C8DE7"/>
<stop offset="1" stop-color="#223BBB"/>
</linearGradient>
<linearGradient id="paint1_linear_3600_5" x1="48.719" y1="113.765" x2="58.7159" y2="133.617" gradientUnits="userSpaceOnUse">
<stop stop-color="#DCEEFC"/>
<stop offset="1" stop-color="#C4CEF1"/>
</linearGradient>
<linearGradient id="paint2_linear_3600_5" x1="13.3034" y1="85.8098" x2="51.0017" y2="146.987" gradientUnits="userSpaceOnUse">
<stop stop-color="#77A9EB"/>
<stop offset="1" stop-color="#3665DD"/>
</linearGradient>
<linearGradient id="paint3_linear_3600_5" x1="46.9497" y1="80.1802" x2="48.9018" y2="102.321" gradientUnits="userSpaceOnUse">
<stop stop-color="#DCEEFC"/>
<stop offset="1" stop-color="#C4CEF1"/>
</linearGradient>
<linearGradient id="paint4_linear_3600_5" x1="25.522" y1="39.1842" x2="32.0186" y2="110.75" gradientUnits="userSpaceOnUse">
<stop stop-color="#AACDFB"/>
<stop offset="1" stop-color="#4688DF"/>
</linearGradient>
<linearGradient id="paint5_linear_3600_5" x1="58.1532" y1="49.1334" x2="50.0373" y2="69.8256" gradientUnits="userSpaceOnUse">
<stop stop-color="#DCEEFC"/>
<stop offset="1" stop-color="#C4CEF1"/>
</linearGradient>
<linearGradient id="paint6_linear_3600_5" x1="57.4197" y1="8.13697" x2="40.823" y2="78.0541" gradientUnits="userSpaceOnUse">
<stop stop-color="#BBD4F2"/>
<stop offset="0.971154" stop-color="#70C2F5"/>
</linearGradient>
<linearGradient id="paint7_linear_3600_5" x1="85.1934" y1="27.9456" x2="70.9191" y2="44.9832" gradientUnits="userSpaceOnUse">
<stop stop-color="#DCEEFC"/>
<stop offset="1" stop-color="#C4CEF1"/>
</linearGradient>
<linearGradient id="paint8_linear_3600_5" x1="66.4552" y1="127.249" x2="109.104" y2="159.002" gradientUnits="userSpaceOnUse">
<stop stop-color="#4C8DE7"/>
<stop offset="1" stop-color="#223BBB"/>
</linearGradient>
<linearGradient id="paint9_linear_3600_5" x1="88.0485" y1="114.178" x2="95.4455" y2="128.867" gradientUnits="userSpaceOnUse">
<stop stop-color="#DCEEFC"/>
<stop offset="1" stop-color="#C4CEF1"/>
</linearGradient>
<linearGradient id="paint10_linear_3600_5" x1="61.8436" y1="93.4928" x2="89.7375" y2="138.76" gradientUnits="userSpaceOnUse">
<stop stop-color="#77A9EB"/>
<stop offset="1" stop-color="#3665DD"/>
</linearGradient>
<linearGradient id="paint11_linear_3600_5" x1="86.7394" y1="89.3273" x2="88.1838" y2="105.71" gradientUnits="userSpaceOnUse">
<stop stop-color="#DCEEFC"/>
<stop offset="1" stop-color="#C4CEF1"/>
</linearGradient>
<linearGradient id="paint12_linear_3600_5" x1="70.8846" y1="58.9933" x2="75.6917" y2="111.947" gradientUnits="userSpaceOnUse">
<stop stop-color="#AACDFB"/>
<stop offset="1" stop-color="#4688DF"/>
</linearGradient>
<linearGradient id="paint13_linear_3600_5" x1="95.0292" y1="66.355" x2="89.0241" y2="81.6657" gradientUnits="userSpaceOnUse">
<stop stop-color="#DCEEFC"/>
<stop offset="1" stop-color="#C4CEF1"/>
</linearGradient>
<linearGradient id="paint14_linear_3600_5" x1="94.4863" y1="36.0208" x2="82.206" y2="87.7541" gradientUnits="userSpaceOnUse">
<stop stop-color="#BBD4F2"/>
<stop offset="0.971154" stop-color="#70C2F5"/>
</linearGradient>
<linearGradient id="paint15_linear_3600_5" x1="115.037" y1="50.6776" x2="104.475" y2="63.2841" gradientUnits="userSpaceOnUse">
<stop stop-color="#DCEEFC"/>
<stop offset="1" stop-color="#C4CEF1"/>
</linearGradient>
<linearGradient id="paint16_linear_3600_5" x1="396.995" y1="131.432" x2="339.355" y2="174.345" gradientUnits="userSpaceOnUse">
<stop stop-color="#4C8DE7"/>
<stop offset="1" stop-color="#223BBB"/>
</linearGradient>
<linearGradient id="paint17_linear_3600_5" x1="367.812" y1="113.765" x2="357.815" y2="133.617" gradientUnits="userSpaceOnUse">
<stop stop-color="#DCEEFC"/>
<stop offset="1" stop-color="#C4CEF1"/>
</linearGradient>
<linearGradient id="paint18_linear_3600_5" x1="403.227" y1="85.8098" x2="365.529" y2="146.987" gradientUnits="userSpaceOnUse">
<stop stop-color="#77A9EB"/>
<stop offset="1" stop-color="#3665DD"/>
</linearGradient>
<linearGradient id="paint19_linear_3600_5" x1="369.581" y1="80.1802" x2="367.629" y2="102.321" gradientUnits="userSpaceOnUse">
<stop stop-color="#DCEEFC"/>
<stop offset="1" stop-color="#C4CEF1"/>
</linearGradient>
<linearGradient id="paint20_linear_3600_5" x1="391.009" y1="39.1842" x2="384.512" y2="110.75" gradientUnits="userSpaceOnUse">
<stop stop-color="#AACDFB"/>
<stop offset="1" stop-color="#4688DF"/>
</linearGradient>
<linearGradient id="paint21_linear_3600_5" x1="358.378" y1="49.1334" x2="366.494" y2="69.8256" gradientUnits="userSpaceOnUse">
<stop stop-color="#DCEEFC"/>
<stop offset="1" stop-color="#C4CEF1"/>
</linearGradient>
<linearGradient id="paint22_linear_3600_5" x1="359.111" y1="8.13697" x2="375.708" y2="78.0541" gradientUnits="userSpaceOnUse">
<stop stop-color="#BBD4F2"/>
<stop offset="0.971154" stop-color="#70C2F5"/>
</linearGradient>
<linearGradient id="paint23_linear_3600_5" x1="331.337" y1="27.9456" x2="345.612" y2="44.9832" gradientUnits="userSpaceOnUse">
<stop stop-color="#DCEEFC"/>
<stop offset="1" stop-color="#C4CEF1"/>
</linearGradient>
<linearGradient id="paint24_linear_3600_5" x1="350.076" y1="127.249" x2="307.427" y2="159.002" gradientUnits="userSpaceOnUse">
<stop stop-color="#4C8DE7"/>
<stop offset="1" stop-color="#223BBB"/>
</linearGradient>
<linearGradient id="paint25_linear_3600_5" x1="328.482" y1="114.178" x2="321.085" y2="128.867" gradientUnits="userSpaceOnUse">
<stop stop-color="#DCEEFC"/>
<stop offset="1" stop-color="#C4CEF1"/>
</linearGradient>
<linearGradient id="paint26_linear_3600_5" x1="354.687" y1="93.4928" x2="326.793" y2="138.76" gradientUnits="userSpaceOnUse">
<stop stop-color="#77A9EB"/>
<stop offset="1" stop-color="#3665DD"/>
</linearGradient>
<linearGradient id="paint27_linear_3600_5" x1="329.792" y1="89.3273" x2="328.347" y2="105.71" gradientUnits="userSpaceOnUse">
<stop stop-color="#DCEEFC"/>
<stop offset="1" stop-color="#C4CEF1"/>
</linearGradient>
<linearGradient id="paint28_linear_3600_5" x1="345.646" y1="58.9933" x2="340.839" y2="111.947" gradientUnits="userSpaceOnUse">
<stop stop-color="#AACDFB"/>
<stop offset="1" stop-color="#4688DF"/>
</linearGradient>
<linearGradient id="paint29_linear_3600_5" x1="321.502" y1="66.355" x2="327.507" y2="81.6657" gradientUnits="userSpaceOnUse">
<stop stop-color="#DCEEFC"/>
<stop offset="1" stop-color="#C4CEF1"/>
</linearGradient>
<linearGradient id="paint30_linear_3600_5" x1="322.045" y1="36.0208" x2="334.325" y2="87.7541" gradientUnits="userSpaceOnUse">
<stop stop-color="#BBD4F2"/>
<stop offset="0.971154" stop-color="#70C2F5"/>
</linearGradient>
<linearGradient id="paint31_linear_3600_5" x1="301.494" y1="50.6776" x2="312.056" y2="63.2841" gradientUnits="userSpaceOnUse">
<stop stop-color="#DCEEFC"/>
<stop offset="1" stop-color="#C4CEF1"/>
</linearGradient>
</defs>
</svg>
