<svg width="179" height="174" viewBox="0 0 179 174" fill="none" xmlns="http://www.w3.org/2000/svg">
<path d="M172.405 114.828C172.167 114.828 171.93 114.851 171.696 114.898L124.686 123.961C123.726 124.194 122.876 124.754 122.283 125.545C121.689 126.335 121.389 127.307 121.433 128.295L121.537 132.826V134.662L119.713 134.894C118.424 135.057 117.087 135.208 115.496 135.382L113.172 135.626L113.172 103.674L115.612 104.151C119.806 104.987 124.128 105.719 128.451 106.347C138.91 107.859 149.453 108.713 160.019 108.903H160.298L163.784 29.2432H163.633C151.142 29.2432 134.586 24.5956 114.473 15.3005L113.311 14.7544V9.10759C113.342 7.57005 112.843 6.0687 111.898 4.85525C110.954 3.64179 109.621 2.79001 108.122 2.44272C106.624 2.09543 105.052 2.27375 103.67 2.94777C102.288 3.62179 101.179 4.75053 100.53 6.14475L99.5544 8.01541L97.6953 7.01618C92.5133 4.22763 89.3297 2.3105 89.2948 2.28727L88.9463 2.07812L82.3002 36.6329L81.8471 38.9567L79.6163 38.2247C76.0028 36.9582 71.8432 35.2851 67.1956 33.2169L60.2242 29.9636V21.1913C60.2619 20.2851 60.116 19.3806 59.7952 18.5323C59.4744 17.6839 58.9853 16.9092 58.3575 16.2547C57.7296 15.6002 56.9759 15.0793 56.1416 14.7236C55.3073 14.3678 54.4097 14.1844 53.5027 14.1844C52.5957 14.1844 51.6981 14.3678 50.8638 14.7236C50.0295 15.0793 49.2758 15.6002 48.6479 16.2547C48.02 16.9092 47.531 17.6839 47.2102 18.5323C46.8894 19.3806 46.7434 20.2851 46.7811 21.1913V23.3873L43.7834 21.8071C33.187 16.1487 30.8399 13.9875 30.7586 13.9411L30.3984 13.7319L11.8081 99.898L11.9824 99.991C23.2528 106.567 47.7339 115.165 47.7339 115.165L47.6409 117.326V132.222L52.6487 134.546L50.3249 134.22C46.9089 133.744 43.7718 133.186 41.0297 132.582C35.0925 131.269 27.4588 128.957 24.8213 125.32C24.3769 124.752 24.0948 124.073 24.0048 123.357C23.9148 122.641 24.0203 121.914 24.3101 121.254C24.5788 120.437 24.6681 119.572 24.5719 118.718C24.4756 117.864 24.1961 117.04 23.7524 116.304C23.3313 115.608 22.766 115.011 22.0946 114.552C21.4232 114.093 20.6612 113.783 19.86 113.643C19.0227 113.505 18.1757 113.435 17.3271 113.434C11.9475 113.434 7.40452 116.513 4.54626 122.125C2.56005 126.335 1.75676 131.006 2.22247 135.638C2.70477 141.182 4.47526 146.538 7.3929 151.277C11.1571 157.384 16.5377 162.33 22.939 165.568C30.5611 169.496 39.7981 171.494 50.3946 171.494H145.67H145.879C149.295 171.169 152.397 167.869 154.198 164.604V164.511L154.268 164.43L166.352 147.129L166.631 146.734L167.049 146.502L173.532 143.016L173.741 142.9L173.916 142.76C174.552 142.238 175.063 141.58 175.411 140.834C175.759 140.088 175.935 139.273 175.926 138.45V118.697C175.961 117.72 175.612 116.768 174.954 116.045C174.296 115.322 173.381 114.885 172.405 114.828ZM100.042 137.334L60.8749 135.533L60.9679 118.105L87.3312 119.72L89.3994 97.2838L100.31 100.258L100.042 137.334Z" fill="#262A41"/>
<path opacity="0.3" d="M18.1673 75.7734C20.3632 91.1221 23.8722 105.158 32.6328 109.097L11.7188 99.8827L18.1673 75.7734Z" fill="white"/>
<path opacity="0.3" d="M77.3588 63.5078C79.5548 78.8913 83.0637 92.8921 91.836 96.8309L70.9219 87.6171L77.3588 63.5078Z" fill="white"/>
<path opacity="0.3" d="M21.3437 116.512C12.8386 118.603 11.119 119.591 4.96094 126.737C4.96094 126.737 5.72779 116.117 11.4908 114.792C13.164 114.398 14.8999 114.347 16.5935 114.642C18.287 114.938 19.903 115.574 21.3437 116.512Z" fill="white"/>
<path opacity="0.3" d="M117.618 135.12H124.032C124.032 135.12 124.125 134.667 124.125 136.991C124.125 139.315 119.129 141.348 113.83 141.731C108.532 142.115 73.0014 144.334 47.8696 139.686C22.7378 135.039 21.7734 125 21.7734 125L37.3312 132.529L62.0331 135.631L102.885 136.41L117.618 135.12Z" fill="white"/>
<path opacity="0.3" d="M122.992 130.532L176.741 120.028L174.116 115.125L122.992 124.397V130.532Z" fill="white"/>
<path opacity="0.3" d="M58.2425 17.8815C45.9845 19.8451 47.2394 44.0357 47.2394 44.0357L47.4369 15.9062C47.4369 15.9062 62.7739 17.1495 58.2425 17.8815Z" fill="white"/>
<path opacity="0.3" d="M111.993 5.61204C99.7237 7.57564 100.99 31.8128 100.99 31.8128L101.176 3.64844C101.176 3.64844 116.525 4.88005 111.993 5.61204Z" fill="white"/>
<path opacity="0.2" d="M172.4 140.66C172.4 140.66 156.412 151.454 127.156 153.871C97.8993 156.288 62.9146 160.354 31.5551 151.756C0.195569 143.158 5.45895 125.219 5.45895 125.219C5.45895 125.219 -9.49463 161.714 38.5497 171.021L145.932 171.485C145.932 171.485 154.216 166.652 158.585 158.879C162.954 151.106 172.4 140.66 172.4 140.66Z" fill="black"/>
<path opacity="0.2" d="M117.081 16.8781C115.512 16.2274 114.002 15.5884 112.561 14.9609V62.7032H112.375V102.696L121.217 104.799V77.7962C131.384 90.577 143.839 99.3377 159.641 108.005L164.161 30.693C164.161 30.693 134.37 24.0586 117.081 16.8781Z" fill="black"/>
<path opacity="0.2" d="M100.485 9.4559C93.5139 6.07479 89.6797 3.86719 89.6797 3.86719C92.3607 18.5772 95.9697 33.1028 100.485 47.3569V9.4559Z" fill="black"/>
<path opacity="0.2" d="M74.1671 88.7123H73.9464L69.6706 87.4807L80.4297 38.96L60.2244 29.3047V94.4637H59.0625V117.121L66.9285 118.224V101.958C74.2833 107.326 87.6683 116.807 87.6683 116.807L88.9348 94.731L74.1671 88.7123Z" fill="black"/>
<path opacity="0.2" d="M46.8279 22.9175L32.3506 16.0391C32.3506 16.0391 30.8402 56.6124 46.8279 82.5111V22.9175Z" fill="black"/>
</svg>
