<svg width="274" height="261" viewBox="0 0 274 261" fill="none" xmlns="http://www.w3.org/2000/svg">
<path d="M54.8672 115.822L93.9992 156.307L136.733 142.422L110.322 106.07L54.8672 115.822Z" fill="#B9E0FA" fill-opacity="0.36"/>
<path d="M218.602 115.822L179.47 156.307L136.735 142.422L163.147 106.07L218.602 115.822Z" fill="#B9DEFA" fill-opacity="0.6"/>
<path d="M86.1352 212.064L93.9971 156.309L136.731 142.424L136.731 187.358L86.1352 212.064Z" fill="#B9E8FA" fill-opacity="0.2"/>
<path d="M187.326 212.064L179.464 156.309L136.73 142.424L136.73 187.358L187.326 212.064Z" fill="#B9EDFA" fill-opacity="0.3"/>
<path d="M136.728 56.3416L163.139 106.069L136.728 142.421L110.317 106.069L136.728 56.3416Z" fill="#B9D9FA" fill-opacity="0.5"/>
<path d="M133.819 21.9033C135.06 19.5672 138.407 19.5672 139.647 21.9033L171.525 81.9229C174.228 87.0119 179.127 90.5713 184.802 91.5693L251.735 103.339C254.34 103.797 255.374 106.981 253.536 108.883L206.305 157.748C202.3 161.891 200.429 167.649 201.233 173.354L210.723 240.649C211.092 243.269 208.384 245.236 206.007 244.075L144.938 214.256C139.761 211.727 133.706 211.727 128.528 214.256L67.46 244.075C65.083 245.236 62.3748 243.269 62.7441 240.649L72.2334 173.354C73.0378 167.649 71.1666 161.891 67.1621 157.748L19.9307 108.883C18.0923 106.981 19.1263 103.797 21.7314 103.339L88.665 91.5693C94.3402 90.5713 99.2385 87.0119 101.941 81.9229L133.819 21.9033Z" stroke="url(#paint0_linear_3510_2)" stroke-width="15.4"/>
<defs>
<linearGradient id="paint0_linear_3510_2" x1="136.733" y1="0" x2="136.733" y2="287.54" gradientUnits="userSpaceOnUse">
<stop stop-color="#C6E0F8"/>
<stop offset="0.394231" stop-color="#B4E0FA"/>
<stop offset="0.528846" stop-color="#EBF8F8"/>
<stop offset="0.682692" stop-color="#A4DAF9"/>
<stop offset="1" stop-color="#8088F8"/>
</linearGradient>
</defs>
</svg>
