<svg width="272" height="259" viewBox="0 0 272 259" fill="none" xmlns="http://www.w3.org/2000/svg">
<path d="M213.794 180.085L217.237 205.949L221.201 235.723C222.47 245.259 212.735 252.455 203.992 248.444L140.868 219.492C137.643 218.012 133.935 218.008 130.706 219.478L66.948 248.524C58.2068 252.506 48.4999 245.311 49.7675 235.79L53.74 205.949L57.1831 180.085M218.905 150.203L260.339 108.046C260.684 107.695 260.995 107.31 261.266 106.898C264.154 102.511 261.826 96.5865 256.724 95.3391L186.841 78.2536C183.571 77.454 180.775 75.3404 179.114 72.4117L146.407 14.7489C141.724 6.4935 129.829 6.49348 125.147 14.7489L92.4658 72.366C90.7895 75.3214 87.9585 77.4456 84.6522 78.2286L14.4462 94.856C8.73138 96.2095 6.61897 103.238 10.6406 107.518L51.0234 148.886" stroke="url(#paint0_linear_3471_108)" stroke-opacity="0.5" stroke-width="17.1094" stroke-linecap="round"/>
<defs>
<linearGradient id="paint0_linear_3471_108" x1="135.741" y1="-17.2734" x2="135.741" y2="302.184" gradientUnits="userSpaceOnUse">
<stop stop-color="#C6E0F8"/>
<stop offset="0.394231" stop-color="#B4E0FA"/>
<stop offset="0.528846" stop-color="#EBF8F8"/>
<stop offset="0.682692" stop-color="#A4DAF9"/>
<stop offset="1" stop-color="#8088F8"/>
</linearGradient>
</defs>
</svg>
