<svg width="65" height="93" viewBox="0 0 65 93" fill="none" xmlns="http://www.w3.org/2000/svg">
<path d="M52.7055 59.9749L51.7133 62.0801C50.3594 64.9528 51.2489 68.3825 53.8282 70.2352C54.312 70.5826 54.7464 70.9941 55.1195 71.4584L55.4785 71.9051C57.0184 73.8212 57.8578 76.2057 57.8578 78.6638V83.6057C57.8578 83.8886 57.7877 84.1672 57.6537 84.4165C57.3552 84.9718 56.7757 85.3182 56.1452 85.3182H9.18396C8.60347 85.3182 8.04686 85.0871 7.63708 84.676C7.22909 84.2666 7 83.7122 7 83.1343V79.7405C7 76.6519 8.37318 73.7233 10.7475 71.748L11.9365 70.7588C14.4402 68.5279 15.269 64.9629 14.0061 61.8565L13.0153 59.4194C12.576 58.339 12.3015 57.1987 12.2008 56.0368L11.9118 52.7027C11.4839 47.7655 12.1462 42.7946 13.8518 38.1416L14.8012 35.5518C15.6701 33.1814 16.902 30.9605 18.4528 28.9683L19.4458 27.6926C22.5363 23.7225 26.9972 21.0486 31.9553 20.1943L28.8099 18.5889C27.4178 17.8783 26.3746 16.6322 25.92 15.1368C25.4249 13.508 25.6763 11.7437 26.6067 10.318L27.0261 9.67533C27.6489 8.72107 28.5348 7.96771 29.5767 7.50637C31.092 6.83541 32.8289 6.83716 34.346 7.50409C35.3948 7.96516 36.2939 8.72269 36.9232 9.68009L37.199 10.0998C37.9657 11.2663 38.3062 12.6615 38.1632 14.05C37.9444 16.175 36.6231 18.0279 34.6854 18.9273L31.9553 20.1943L33.171 20.416C37.1034 21.1329 40.6853 23.1381 43.3524 26.1154C46.0719 29.1512 48.2046 32.6651 49.6424 36.4789L51.299 40.8731C52.382 43.746 53.032 46.7639 53.2275 49.8279L53.5816 55.3785C53.6825 56.9601 53.3811 58.5414 52.7055 59.9749Z" stroke="url(#paint1_linear_3510_3)" stroke-opacity="0.9" stroke-width="11"/>
<path d="M52.7055 59.9749L51.7133 62.0801C50.3594 64.9528 51.2489 68.3825 53.8282 70.2352C54.312 70.5826 54.7464 70.9941 55.1195 71.4584L55.4785 71.9051C57.0184 73.8212 57.8578 76.2057 57.8578 78.6638V83.6057C57.8578 83.8886 57.7877 84.1672 57.6537 84.4165C57.3552 84.9718 56.7757 85.3182 56.1452 85.3182H9.18396C8.60347 85.3182 8.04686 85.0871 7.63708 84.676C7.22909 84.2666 7 83.7122 7 83.1343V79.7405C7 76.6519 8.37318 73.7233 10.7475 71.748L11.9365 70.7588C14.4402 68.5279 15.269 64.9629 14.0061 61.8565L13.0153 59.4194C12.576 58.339 12.3015 57.1987 12.2008 56.0368L11.9118 52.7027C11.4839 47.7655 12.1462 42.7946 13.8518 38.1416L14.8012 35.5518C15.6701 33.1814 16.902 30.9605 18.4528 28.9683L19.4458 27.6926C22.5363 23.7225 26.9972 21.0486 31.9553 20.1943L28.8099 18.5889C27.4178 17.8783 26.3746 16.6322 25.92 15.1368C25.4249 13.508 25.6763 11.7437 26.6067 10.318L27.0261 9.67533C27.6489 8.72107 28.5348 7.96771 29.5767 7.50637C31.092 6.83541 32.8289 6.83716 34.346 7.50409C35.3948 7.96516 36.2939 8.72269 36.9232 9.68009L37.199 10.0998C37.9657 11.2663 38.3062 12.6615 38.1632 14.05C37.9444 16.175 36.6231 18.0279 34.6854 18.9273L31.9553 20.1943L33.171 20.416C37.1034 21.1329 40.6853 23.1381 43.3524 26.1154C46.0719 29.1512 48.2046 32.6651 49.6424 36.4789L51.299 40.8731C52.382 43.746 53.032 46.7639 53.2275 49.8279L53.5816 55.3785C53.6825 56.9601 53.3811 58.5414 52.7055 59.9749Z" fill="url(#paint0_linear_3510_3)"/>
<path d="M32.6931 42.8027C32.2017 44.6722 33.319 46.586 35.1885 47.0774C37.058 47.5687 38.9718 46.4515 39.4632 44.582L36.0781 43.6923L32.6931 42.8027ZM41.8656 21.6719L38.4805 20.7822L32.6931 42.8027L36.0781 43.6923L39.4632 44.582L45.2506 22.5615L41.8656 21.6719Z" fill="url(#paint2_linear_3510_3)"/>
<defs>
<linearGradient id="paint0_linear_3510_3" x1="32.4289" y1="6.45313" x2="32.4289" y2="93.6443" gradientUnits="userSpaceOnUse">
<stop stop-color="#A1DEF8"/>
<stop offset="0.567308" stop-color="#E1F6FA"/>
<stop offset="1" stop-color="#A8C4EE"/>
</linearGradient>
<linearGradient id="paint1_linear_3510_3" x1="32.4289" y1="6.45313" x2="32.4289" y2="93.6443" gradientUnits="userSpaceOnUse">
<stop offset="0.399038" stop-color="#ABE2F8"/>
<stop offset="0.528846" stop-color="#EBF8F8"/>
<stop offset="0.682692" stop-color="#A4D9F9"/>
</linearGradient>
<linearGradient id="paint2_linear_3510_3" x1="40.9373" y1="21.7064" x2="28.868" y2="27.9432" gradientUnits="userSpaceOnUse">
<stop stop-color="#A5DAEE"/>
<stop offset="1" stop-color="#B0CCF6"/>
</linearGradient>
</defs>
</svg>
