<svg width="2072" height="2073" viewBox="0 0 2072 2073" fill="none" xmlns="http://www.w3.org/2000/svg">
<path d="M1339.53 303.613L732.504 303.413L1036.14 1036.02L1339.53 303.613Z" fill="#83F2CB" fill-opacity="0.7"/>
<path d="M732.514 303.422L303.14 732.514L1035.88 1035.84L732.514 303.422Z" fill="#83F2CB" fill-opacity="0.6"/>
<path d="M732.85 1768.58L303.55 1339.42L1036.34 1036.22L732.85 1768.58Z" fill="#83F2CB" fill-opacity="0.4"/>
<path d="M303.561 1339.41L303.466 732.385L1036.02 1036.15L303.561 1339.41Z" fill="#83F2CB" fill-opacity="0.5"/>
<path d="M1338.81 304.467L1768.19 733.545L1035.46 1036.89L1338.81 304.467Z" fill="#83F2CB" fill-opacity="0.85"/>
<path d="M1768.19 733.549L1768.41 1340.58L1035.79 1036.96L1768.19 733.549Z" fill="#83F2CB" fill-opacity="0.7"/>
<path d="M731.955 1769.37L1338.98 1769.45L1035.19 1036.9L731.955 1769.37Z" fill="#83F2CB" fill-opacity="0.5"/>
<path d="M1338.97 1769.43L1768.26 1340.25L1035.46 1037.07L1338.97 1769.43Z" fill="#83F2CB" fill-opacity="0.6"/>
<path d="M1424.01 99.2656L1973.01 648.271V1424.68L1424.01 1973.69H647.599L98.5938 1424.68V648.271L647.599 99.2656H1424.01Z" stroke="url(#paint0_linear_3510_9)" stroke-width="140" stroke-linejoin="round"/>
<defs>
<linearGradient id="paint0_linear_3510_9" x1="827.595" y1="15.5113" x2="974.941" y2="1665.57" gradientUnits="userSpaceOnUse">
<stop stop-color="#75FFBF"/>
<stop offset="0.480769" stop-color="#CEFBE5"/>
<stop offset="0.769231" stop-color="#75FFB5"/>
<stop offset="0.985577" stop-color="#10AEA1"/>
</linearGradient>
</defs>
</svg>
