<svg width="727" height="903" viewBox="0 0 727 903" fill="none" xmlns="http://www.w3.org/2000/svg">
<path d="M549.567 368.189L582.031 638.691C584.451 658.86 595.279 677.067 611.843 688.825L623.471 697.079C641.777 710.072 652.975 730.861 653.753 753.296L653.826 755.386C655.238 796.104 622.612 829.881 581.869 829.881H363.428H145.001C104.259 829.881 71.6324 796.104 73.0446 755.386L73.1171 753.296C73.8952 730.861 85.093 710.072 103.399 697.079L115.027 688.825C131.592 677.067 142.419 658.86 144.839 638.691L177.304 368.189C179.291 351.63 169.902 335.803 154.416 329.609C145.815 326.169 138.827 319.614 134.844 311.25L121.614 283.467C117.009 273.797 114.62 263.222 114.62 252.512V128.75L215.528 102.055L235.249 200.504H281.731V82.3381L354.815 73.5178C360.546 72.8262 366.339 72.8262 372.07 73.518L445.139 82.3381V200.504H491.621L511.342 102.055L612.251 128.75V252.512C612.251 263.222 609.861 273.797 605.257 283.467L592.026 311.25C588.044 319.614 581.055 326.169 572.454 329.609C556.969 335.803 547.579 351.63 549.567 368.189Z" stroke="url(#paint1_linear_3489_5)" stroke-opacity="0.8" stroke-width="153"/>
<path d="M549.567 368.189L582.031 638.691C584.451 658.86 595.279 677.067 611.843 688.825L623.471 697.079C641.777 710.072 652.975 730.861 653.753 753.296L653.826 755.386C655.238 796.104 622.612 829.881 581.869 829.881H363.428H145.001C104.259 829.881 71.6324 796.104 73.0446 755.386L73.1171 753.296C73.8952 730.861 85.093 710.072 103.399 697.079L115.027 688.825C131.592 677.067 142.419 658.86 144.839 638.691L177.304 368.189C179.291 351.63 169.902 335.803 154.416 329.609C145.815 326.169 138.827 319.614 134.844 311.25L121.614 283.467C117.009 273.797 114.62 263.222 114.62 252.512V128.75L215.528 102.055L235.249 200.504H281.731V82.3381L354.815 73.5178C360.546 72.8262 366.339 72.8262 372.07 73.518L445.139 82.3381V200.504H491.621L511.342 102.055L612.251 128.75V252.512C612.251 263.222 609.861 273.797 605.257 283.467L592.026 311.25C588.044 319.614 581.055 326.169 572.454 329.609C556.969 335.803 547.579 351.63 549.567 368.189Z" fill="url(#paint0_linear_3489_5)"/>
<defs>
<linearGradient id="paint0_linear_3489_5" x1="363.435" y1="72.4766" x2="363.435" y2="909.843" gradientUnits="userSpaceOnUse">
<stop stop-color="#8BF4D5"/>
<stop offset="0.476041" stop-color="#C5F1E3"/>
<stop offset="1" stop-color="#71E1D4"/>
</linearGradient>
<linearGradient id="paint1_linear_3489_5" x1="446.126" y1="52.4339" x2="396.15" y2="713.872" gradientUnits="userSpaceOnUse">
<stop stop-color="#5CF1C4"/>
<stop offset="0.591346" stop-color="#DAFEFB"/>
<stop offset="1" stop-color="#4DDBBF"/>
</linearGradient>
</defs>
</svg>
