<svg width="73" height="91" viewBox="0 0 73 91" fill="none" xmlns="http://www.w3.org/2000/svg">
<path d="M54.9567 36.819L58.2031 63.8692C58.4452 65.886 59.5279 67.7068 61.1844 68.8825L62.3472 69.7079C64.1778 71.0073 65.2976 73.0862 65.3754 75.3297L65.3826 75.5387C65.5238 79.6105 62.2612 82.9882 58.187 82.9882H36.3428H14.5002C10.4259 82.9882 7.16329 79.6105 7.30451 75.5387L7.31176 75.3297C7.38957 73.0862 8.50935 71.0073 10.3399 69.7079L11.5028 68.8825C13.1592 67.7068 14.2419 65.886 14.484 63.8692L17.7304 36.819C17.9292 35.1631 16.9902 33.5803 15.4417 32.961C14.5816 32.617 13.8827 31.9615 13.4844 31.1251L12.1614 28.3468C11.701 27.3798 11.462 26.3223 11.462 25.2513V12.875L21.5529 10.2056L23.5249 20.0505H28.1731V8.2339L35.4815 7.35187C36.0546 7.2827 36.634 7.28271 37.2071 7.35189L44.514 8.2339V20.0505H49.1622L51.1343 10.2056L61.2251 12.875V25.2513C61.2251 26.3223 60.9862 27.3798 60.5257 28.3468L59.2027 31.1251C58.8044 31.9615 58.1056 32.617 57.2454 32.961C55.6969 33.5803 54.758 35.1631 54.9567 36.819Z" stroke="url(#paint1_linear_3524_70)" stroke-opacity="0.8" stroke-width="13"/>
<path d="M54.9567 36.819L58.2031 63.8692C58.4452 65.886 59.5279 67.7068 61.1844 68.8825L62.3472 69.7079C64.1778 71.0073 65.2976 73.0862 65.3754 75.3297L65.3826 75.5387C65.5238 79.6105 62.2612 82.9882 58.187 82.9882H36.3428H14.5002C10.4259 82.9882 7.16329 79.6105 7.30451 75.5387L7.31176 75.3297C7.38957 73.0862 8.50935 71.0073 10.3399 69.7079L11.5028 68.8825C13.1592 67.7068 14.2419 65.886 14.484 63.8692L17.7304 36.819C17.9292 35.1631 16.9902 33.5803 15.4417 32.961C14.5816 32.617 13.8827 31.9615 13.4844 31.1251L12.1614 28.3468C11.701 27.3798 11.462 26.3223 11.462 25.2513V12.875L21.5529 10.2056L23.5249 20.0505H28.1731V8.2339L35.4815 7.35187C36.0546 7.2827 36.634 7.28271 37.2071 7.35189L44.514 8.2339V20.0505H49.1622L51.1343 10.2056L61.2251 12.875V25.2513C61.2251 26.3223 60.9862 27.3798 60.5257 28.3468L59.2027 31.1251C58.8044 31.9615 58.1056 32.617 57.2454 32.961C55.6969 33.5803 54.758 35.1631 54.9567 36.819Z" fill="url(#paint0_linear_3524_70)"/>
<defs>
<linearGradient id="paint0_linear_3524_70" x1="36.3436" y1="7.24774" x2="36.3436" y2="90.9843" gradientUnits="userSpaceOnUse">
<stop stop-color="#8BF4D5"/>
<stop offset="0.476041" stop-color="#C5F1E3"/>
<stop offset="1" stop-color="#71E1D4"/>
</linearGradient>
<linearGradient id="paint1_linear_3524_70" x1="44.6126" y1="5.24348" x2="39.6151" y2="71.3873" gradientUnits="userSpaceOnUse">
<stop stop-color="#5CF1C4"/>
<stop offset="0.591346" stop-color="#DAFEFB"/>
<stop offset="1" stop-color="#4DDBBF"/>
</linearGradient>
</defs>
</svg>
