<svg width="1581" height="1010" viewBox="0 0 1581 1010" fill="none" xmlns="http://www.w3.org/2000/svg">
<path d="M1348.72 554.109L1377.95 534.178L1440.86 471.271V143.503H1510.63H1580.86V529.26L1467.66 642.458L1208.72 789.776L790.429 1009.47L372.136 789.776L113.193 642.458L0 529.26V160.43H89.8262H140V471.271L202.907 534.18L232.136 554.109V105.839L394.909 272.353H496.574V690.281L790.428 846.024L1084.28 690.281V272.354H1185.95L1348.72 105.838V554.109Z" fill="url(#paint0_linear_3510_10)" fill-opacity="0.5"/>
<path d="M0.0078125 72.4375L0 160.43H89.8262L0.0078125 72.4375Z" fill="url(#paint1_linear_3510_10)" fill-opacity="0.5"/>
<path d="M1580.86 143.503V75.2324L1510.63 143.503H1580.86Z" fill="url(#paint2_linear_3510_10)" fill-opacity="0.5"/>
<path d="M69.4531 501.823L69.4609 0L303.734 206.863V687.464L152.583 582.038L69.4531 501.823Z" fill="url(#paint3_linear_3510_10)"/>
<path d="M427.672 250.318L791.696 226.32L1150.66 250.319V734.889L791.696 924.685L427.674 734.889L427.672 250.318Z" fill="url(#paint4_linear_3510_10)"/>
<path d="M1508.88 0.00146484L1508.89 501.825L1425.76 582.039L1274.6 687.466V206.864L1508.88 0.00146484Z" fill="url(#paint5_linear_3510_10)"/>
<defs>
<linearGradient id="paint0_linear_3510_10" x1="430.222" y1="214.843" x2="430.222" y2="925.216" gradientUnits="userSpaceOnUse">
<stop stop-color="#5ADF91"/>
<stop offset="1" stop-color="#116861"/>
</linearGradient>
<linearGradient id="paint1_linear_3510_10" x1="430.222" y1="214.843" x2="430.222" y2="925.216" gradientUnits="userSpaceOnUse">
<stop stop-color="#5ADF91"/>
<stop offset="1" stop-color="#116861"/>
</linearGradient>
<linearGradient id="paint2_linear_3510_10" x1="430.222" y1="214.843" x2="430.222" y2="925.216" gradientUnits="userSpaceOnUse">
<stop stop-color="#5ADF91"/>
<stop offset="1" stop-color="#116861"/>
</linearGradient>
<linearGradient id="paint3_linear_3510_10" x1="963.533" y1="7.08326e-05" x2="840.619" y2="953.785" gradientUnits="userSpaceOnUse">
<stop stop-color="#55D9A4"/>
<stop offset="1" stop-color="#AAE6FB"/>
</linearGradient>
<linearGradient id="paint4_linear_3510_10" x1="963.533" y1="7.08326e-05" x2="840.619" y2="953.785" gradientUnits="userSpaceOnUse">
<stop stop-color="#55D9A4"/>
<stop offset="1" stop-color="#AAE6FB"/>
</linearGradient>
<linearGradient id="paint5_linear_3510_10" x1="963.533" y1="7.08326e-05" x2="840.619" y2="953.785" gradientUnits="userSpaceOnUse">
<stop stop-color="#55D9A4"/>
<stop offset="1" stop-color="#AAE6FB"/>
</linearGradient>
</defs>
</svg>
