<svg width="3801" height="1050" viewBox="0 0 3801 1050" fill="none" xmlns="http://www.w3.org/2000/svg">
<path d="M2874.72 332.265L3688.32 10.5574C3697.35 65.1452 3692.12 121.14 3673.15 173.114L3638.33 268.469L3538.38 474.556L2931.51 649.445L2874.72 332.265Z" fill="url(#paint0_linear_3510_12)"/>
<path d="M2882.17 505.937L3649.25 290.262C3652.32 340.268 3642.37 390.216 3620.36 435.224L3579.84 518.106L3470.02 694.694L2903.95 796.928L2882.17 505.937Z" fill="url(#paint1_linear_3510_12)"/>
<path d="M2866.46 757.641L3606.84 572.609C3608.49 622.705 3597.52 672.412 3574.93 717.157L3534.45 797.336L3424.68 969.295L2879.78 1049.01L2866.46 757.641Z" fill="url(#paint2_linear_3510_12)"/>
<path d="M925.565 321.71L111.964 0.00273273C102.933 54.5905 108.159 110.586 127.135 162.559L161.951 257.915L261.902 464.002L868.769 638.89L925.565 321.71Z" fill="url(#paint3_linear_3510_12)"/>
<path d="M918.107 495.39L151.036 279.715C147.963 329.721 157.915 379.669 179.921 424.677L220.444 507.56L330.261 684.147L896.333 786.381L918.107 495.39Z" fill="url(#paint4_linear_3510_12)"/>
<path d="M933.827 747.086L193.448 562.055C191.799 612.151 202.773 661.857 225.362 706.602L265.839 786.781L375.61 958.74L920.508 1038.46L933.827 747.086Z" fill="url(#paint5_linear_3510_12)"/>
<path d="M3607.6 604.086L2902.86 780.418L2895.22 718.285L3607.6 545.172V604.086Z" fill="url(#paint6_linear_3510_12)"/>
<path d="M3653.73 319.81L2896.63 512.434L2896.62 451.107L3644.92 260.938L3653.73 319.81Z" fill="url(#paint7_linear_3510_12)"/>
<path d="M193.178 603.898L897.909 780.231L905.555 718.098L193.178 544.984V603.898Z" fill="url(#paint8_linear_3510_12)"/>
<path d="M147.041 319.622L904.141 512.247L904.148 450.919L155.85 260.75L147.041 319.622Z" fill="url(#paint9_linear_3510_12)"/>
<defs>
<linearGradient id="paint0_linear_3510_12" x1="3688.41" y1="10.8669" x2="3431.21" y2="809.991" gradientUnits="userSpaceOnUse">
<stop stop-color="#AAE6FB"/>
<stop offset="1" stop-color="#55D9A4"/>
</linearGradient>
<linearGradient id="paint1_linear_3510_12" x1="3649.3" y1="290.549" x2="3345.31" y2="988.809" gradientUnits="userSpaceOnUse">
<stop stop-color="#AAE6FB"/>
<stop offset="1" stop-color="#55D9A4"/>
</linearGradient>
<linearGradient id="paint2_linear_3510_12" x1="3606.88" y1="572.898" x2="3270.55" y2="1244.45" gradientUnits="userSpaceOnUse">
<stop stop-color="#AAE6FB"/>
<stop offset="1" stop-color="#55D9A4"/>
</linearGradient>
<linearGradient id="paint3_linear_3510_12" x1="111.874" y1="0.312255" x2="369.072" y2="799.436" gradientUnits="userSpaceOnUse">
<stop stop-color="#AAE6FB"/>
<stop offset="1" stop-color="#55D9A4"/>
</linearGradient>
<linearGradient id="paint4_linear_3510_12" x1="150.984" y1="280.003" x2="454.969" y2="978.263" gradientUnits="userSpaceOnUse">
<stop stop-color="#AAE6FB"/>
<stop offset="1" stop-color="#55D9A4"/>
</linearGradient>
<linearGradient id="paint5_linear_3510_12" x1="193.406" y1="562.343" x2="529.742" y2="1233.9" gradientUnits="userSpaceOnUse">
<stop stop-color="#AAE6FB"/>
<stop offset="1" stop-color="#55D9A4"/>
</linearGradient>
<linearGradient id="paint6_linear_3510_12" x1="3251.41" y1="545.172" x2="3251.41" y2="777.484" gradientUnits="userSpaceOnUse">
<stop stop-color="#DCFCF6"/>
<stop offset="1" stop-color="#95E6D0"/>
</linearGradient>
<linearGradient id="paint7_linear_3510_12" x1="3275.18" y1="260.938" x2="3275.18" y2="510.193" gradientUnits="userSpaceOnUse">
<stop stop-color="#DCFCF6"/>
<stop offset="1" stop-color="#95E6D0"/>
</linearGradient>
<linearGradient id="paint8_linear_3510_12" x1="549.366" y1="544.984" x2="549.366" y2="777.297" gradientUnits="userSpaceOnUse">
<stop stop-color="#DCFCF6"/>
<stop offset="1" stop-color="#95E6D0"/>
</linearGradient>
<linearGradient id="paint9_linear_3510_12" x1="525.595" y1="260.75" x2="525.595" y2="510.005" gradientUnits="userSpaceOnUse">
<stop stop-color="#DCFCF6"/>
<stop offset="1" stop-color="#95E6D0"/>
</linearGradient>
</defs>
</svg>
