<svg width="260" height="207" viewBox="0 0 260 207" fill="none" xmlns="http://www.w3.org/2000/svg">
<path fill-rule="evenodd" clip-rule="evenodd" d="M129.773 82.5486L175.671 116.075L129.773 165.788V82.5486Z" fill="#F27186" fill-opacity="0.4"/>
<path fill-rule="evenodd" clip-rule="evenodd" d="M129.792 82.5682L175.672 116.078L221.811 66.0446L129.792 82.5682Z" fill="#F27186" fill-opacity="0.6"/>
<path fill-rule="evenodd" clip-rule="evenodd" d="M129.815 26.4485C129.811 26.4485 129.808 26.4518 129.808 26.4559L129.813 82.6021C129.813 82.6087 129.821 82.612 129.826 82.6074L187.336 26.4613C187.341 26.4566 187.338 26.4485 187.331 26.4485H129.815Z" fill="#F27186" fill-opacity="0.7"/>
<path fill-rule="evenodd" clip-rule="evenodd" d="M129.891 82.5428C129.884 82.5441 129.879 82.5353 129.884 82.5301L187.496 26.2807C187.499 26.2777 187.504 26.2779 187.507 26.2811L221.797 66.0293C221.801 66.0337 221.799 66.0405 221.793 66.0415L129.891 82.5428Z" fill="#F27186" fill-opacity="0.7667"/>
<path fill-rule="evenodd" clip-rule="evenodd" d="M129.773 82.5486L83.8749 116.075L129.773 165.788V82.5486Z" fill="#F27186" fill-opacity="0.3"/>
<path fill-rule="evenodd" clip-rule="evenodd" d="M129.746 82.5682L83.8661 116.078L37.7269 66.0446L129.746 82.5682Z" fill="#F27186" fill-opacity="0.4"/>
<path fill-rule="evenodd" clip-rule="evenodd" d="M129.799 26.5439C129.803 26.5439 129.806 26.5472 129.806 26.5513V82.6789C129.806 82.6855 129.798 82.6889 129.793 82.6843L72.2021 26.5567C72.1973 26.552 72.2006 26.5439 72.2073 26.5439H129.799Z" fill="#F27186" fill-opacity="0.6"/>
<path fill-rule="evenodd" clip-rule="evenodd" d="M129.647 82.5428C129.654 82.5441 129.659 82.5353 129.654 82.5301L72.0423 26.2807C72.0392 26.2777 72.0343 26.2779 72.0315 26.2811L37.7408 66.0293C37.7371 66.0337 37.7395 66.0405 37.7451 66.0415L129.647 82.5428Z" fill="#F27186" fill-opacity="0.5"/>
<path d="M61.4414 7.20605H198.102C200.101 7.20614 202 8.08066 203.3 9.59961L226.581 36.8057L240.324 52.8662L245.99 59.4883C248.237 62.1134 248.173 66.0012 245.843 68.5518L238.001 77.1328L221.78 94.8848L189.337 130.388L134.821 190.046C132.108 193.015 127.433 193.015 124.72 190.046L70.2051 130.388L37.7617 94.8848L21.541 77.1328L13.6992 68.5518C11.3688 66.0012 11.3056 62.1133 13.5518 59.4883L19.2178 52.8662L32.9619 36.8057L56.2432 9.59961C57.543 8.08066 59.4422 7.20605 61.4414 7.20605Z" stroke="url(#paint0_linear_3536_7)" stroke-width="14.4118"/>
<defs>
<linearGradient id="paint0_linear_3536_7" x1="191.288" y1="6.00819" x2="189.077" y2="192.662" gradientUnits="userSpaceOnUse">
<stop stop-color="#F5E1E5"/>
<stop offset="0.331731" stop-color="#F96E8F"/>
<stop offset="1" stop-color="#F1455E"/>
</linearGradient>
</defs>
</svg>
