<svg width="364" height="341" viewBox="0 0 364 341" fill="none" xmlns="http://www.w3.org/2000/svg">
<path d="M65.8637 132.032L78.8709 119.492C79.3609 119.019 79.816 118.512 80.2326 117.973L97.3653 95.8235C100.491 91.7825 105.564 89.757 110.613 90.534L123.3 92.4862L132.21 92.2832H181.891L238.936 92.2832L252.225 90.3916C257.094 89.6984 261.972 91.6025 265.084 95.4116L284.176 118.782L297.919 132.032M238.936 92.2832L244.579 75.8509L252.019 44.0856L229.399 58.9962L221.66 24.0226L199.932 51.8329L181.478 15.806L163.024 51.8329L141.296 24.0226L133.557 58.9962L110.85 44.0856L118.377 75.8509L123.3 92.4862" stroke="url(#paint0_linear_3536_6)" stroke-opacity="0.4" stroke-width="14.4118" stroke-linecap="round"/>
<path d="M246.873 233.05L241.554 228.189L241.553 228.189L246.873 233.05ZM192.357 292.708L187.038 287.847V287.847L192.357 292.708ZM84.6591 197.546L79.3397 202.407L79.3397 202.407L84.6591 197.546ZM73.7573 174.934C71.0727 171.996 66.5148 171.791 63.5769 174.475C60.639 177.16 60.4337 181.718 63.1183 184.656L68.4378 179.795L73.7573 174.934ZM300.857 184.656C303.541 181.718 303.336 177.16 300.398 174.475C297.46 171.791 292.902 171.996 290.218 174.934L295.537 179.795L300.857 184.656ZM279.316 197.546L284.635 202.407V202.407L279.316 197.546ZM117.102 233.05L122.421 228.189V228.189L117.102 233.05ZM90.6493 204.101L95.9688 199.241L95.9687 199.24L90.6493 204.101ZM73.449 217.863L77.9508 223.49V223.49L73.449 217.863ZM62.1264 220.709L60.8201 227.795H60.8201L62.1264 220.709ZM40.9498 216.805L39.6435 223.892L39.6435 223.892L40.9498 216.805ZM38.1284 215.569L42.452 209.805L42.4519 209.805L38.1284 215.569ZM33.6826 212.235L38.0062 206.47L38.0061 206.47L33.6826 212.235ZM33.7607 207.823L29.644 201.909H29.644L33.7607 207.823ZM43.7186 200.892L39.6019 194.978L39.6018 194.978L43.7186 200.892ZM41.7056 198.793L38.024 204.988L38.0241 204.988L41.7056 198.793ZM22.424 187.334L18.7424 193.528L18.7425 193.528L22.424 187.334ZM20.0649 185.573L24.9566 180.282L24.9566 180.282L20.0649 185.573ZM14.5757 180.498L9.68394 185.789L9.68395 185.789L14.5757 180.498ZM13.4281 178.834L20.1121 176.142L20.1121 176.142L13.4281 178.834ZM13.0893 177.993L6.40521 180.685L6.40521 180.685L13.0893 177.993ZM15.7363 172.841L17.4394 179.843H17.4394L15.7363 172.841ZM22.4159 171.216L20.7128 164.215H20.7128L22.4159 171.216ZM20.6006 165.36L14.3015 168.86L14.3016 168.86L20.6006 165.36ZM8.99785 144.476L15.297 140.976V140.976L8.99785 144.476ZM8.09051 141.65L0.931573 142.471V142.471L8.09051 141.65ZM7.22206 134.082L14.381 133.26V133.26L7.22206 134.082ZM9.84747 131.714L11.4021 124.678L11.4021 124.678L9.84747 131.714ZM27.4916 135.613L25.937 142.649L25.937 142.649L27.4916 135.613ZM27.4982 134.186L20.4626 135.743L20.4626 135.743L27.4982 134.186ZM22.7934 112.933L15.6995 114.198L15.7256 114.345L15.7578 114.49L22.7934 112.933ZM21.402 105.133L14.3081 106.398L14.3081 106.398L21.402 105.133ZM30.0635 99.5085L34.1163 93.5504V93.5504L30.0635 99.5085ZM273.966 192.771C271.282 195.709 271.487 200.267 274.425 202.951C277.363 205.636 281.921 205.43 284.605 202.493L279.286 197.632L273.966 192.771ZM300.827 184.741C303.511 181.803 303.306 177.245 300.368 174.56C297.43 171.876 292.872 172.081 290.188 175.019L295.507 179.88L300.827 184.741ZM302.255 221.988L300.535 214.99V214.99L302.255 221.988ZM322.995 216.891L321.689 209.804L321.481 209.843L321.276 209.893L322.995 216.891ZM325.817 215.655L321.493 209.89L321.493 209.89L325.817 215.655ZM330.262 212.32L334.586 218.085L334.586 218.085L330.262 212.32ZM330.184 207.909L334.301 201.995L334.301 201.994L330.184 207.909ZM320.226 200.977L316.11 206.891L316.11 206.891L320.226 200.977ZM322.239 198.879L325.921 205.073L325.921 205.073L322.239 198.879ZM341.521 187.419L345.203 193.613V193.613L341.521 187.419ZM343.88 185.658L348.772 190.949L348.772 190.949L343.88 185.658ZM349.369 180.583L354.261 185.874L354.261 185.874L349.369 180.583ZM350.517 178.919L357.201 181.611L357.201 181.611L350.517 178.919ZM350.856 178.078L344.172 175.386V175.386L350.856 178.078ZM348.209 172.926L346.506 179.928H346.506L348.209 172.926ZM341.529 171.302L343.232 164.3H343.232L341.529 171.302ZM343.344 165.446L337.045 161.946V161.946L343.344 165.446ZM354.947 144.561L361.246 148.06V148.06L354.947 144.561ZM355.855 141.735L363.013 142.556V142.556L355.855 141.735ZM356.723 134.167L363.882 134.989V134.989L356.723 134.167ZM354.098 131.799L352.543 124.763L352.543 124.763L354.098 131.799ZM336.453 135.698L338.008 142.734L338.008 142.734L336.453 135.698ZM336.447 134.271L343.482 135.829L343.482 135.828L336.447 134.271ZM341.152 113.018L348.187 114.576L348.219 114.43L348.246 114.284L341.152 113.018ZM342.54 105.236L349.634 106.501V106.501L342.54 105.236ZM333.835 99.4954L337.801 105.512L337.801 105.512L333.835 99.4954ZM342.337 102.445L335.5 104.722V104.722L342.337 102.445ZM336.124 134.658L338.907 141.304L338.908 141.304L336.124 134.658ZM341.676 166.636L342.935 173.731L342.935 173.731L341.676 166.636ZM321.267 198.97L318.805 205.742L318.805 205.742L321.267 198.97ZM290.094 219.289L285.576 224.903V224.903L290.094 219.289ZM171.617 292.708L166.298 297.569V297.569L171.617 292.708ZM114.961 289.17L107.889 287.792L107.109 291.79L110.133 294.519L114.961 289.17ZM137.842 309.823L133.013 315.172L142.937 324.129L144.964 310.915L137.842 309.823ZM143.373 273.764L136.25 272.671V272.671L143.373 273.764ZM151.797 274.558L158.999 274.815V274.815L151.797 274.558ZM149.896 327.801L142.694 327.544L142.237 340.352L153.418 334.088L149.896 327.801ZM174.894 313.796L171.372 307.51V307.51L174.894 313.796ZM246.635 240.746C246.034 236.812 242.357 234.111 238.423 234.712C234.489 235.314 231.787 238.991 232.389 242.925L239.512 241.835L246.635 240.746ZM247.404 293.452L251.543 299.351L255.203 296.783L254.527 292.363L247.404 293.452ZM222.86 310.673L215.73 311.715L217.421 323.292L226.999 316.572L222.86 310.673ZM217.38 273.153L224.51 272.112L224.51 272.112L217.38 273.153ZM212.072 327.801L208.375 333.987L219.278 340.502V327.801H212.072ZM188.966 313.993L192.663 307.808H192.663L188.966 313.993ZM213.194 272.672L219.902 275.305L219.902 275.305L213.194 272.672ZM212.648 274.063L205.94 271.431H205.94L212.648 274.063ZM27.8214 134.573L25.0375 141.219L25.0375 141.219L27.8214 134.573ZM213.786 271.829L209.035 266.412L209.035 266.412L213.786 271.829ZM21.6022 102.377L28.4388 104.654L28.4388 104.654L21.6022 102.377ZM22.2689 166.551L23.5277 159.455L23.5277 159.455L22.2689 166.551ZM150.563 271.415L145.46 276.502V276.502L150.563 271.415ZM42.6777 198.885L45.1402 205.657L45.1403 205.657L42.6777 198.885ZM246.873 233.05L241.553 228.189L187.038 287.847L192.357 292.708L197.677 297.569L252.192 237.911L246.873 233.05ZM84.6591 197.546L89.9786 192.685L73.7573 174.934L68.4378 179.795L63.1183 184.656L79.3397 202.407L84.6591 197.546ZM295.537 179.795L290.218 174.934L273.996 192.685L279.316 197.546L284.635 202.407L300.857 184.656L295.537 179.795ZM117.102 233.05L122.421 228.189L95.9688 199.241L90.6493 204.101L85.3298 208.962L111.782 237.911L117.102 233.05ZM90.6493 204.101L95.9687 199.24L89.9786 192.685L84.6591 197.546L79.3397 202.407L85.3299 208.962L90.6493 204.101ZM90.6493 204.101L86.1475 198.475L68.9473 212.236L73.449 217.863L77.9508 223.49L95.151 209.728L90.6493 204.101ZM62.1264 220.709L63.4327 213.622L42.2561 209.719L40.9498 216.805L39.6435 223.892L60.8201 227.795L62.1264 220.709ZM38.1284 215.569L42.4519 209.805L38.0062 206.47L33.6826 212.235L29.359 218L33.8048 221.334L38.1284 215.569ZM33.7607 207.823L37.8774 213.737L47.8353 206.806L43.7186 200.892L39.6018 194.978L29.644 201.909L33.7607 207.823ZM41.7056 198.793L45.3872 192.599L26.1056 181.139L22.424 187.334L18.7425 193.528L38.024 204.988L41.7056 198.793ZM20.0649 185.573L24.9566 180.282L19.4674 175.207L14.5757 180.498L9.68395 185.789L15.1731 190.864L20.0649 185.573ZM13.4281 178.834L20.1121 176.142L19.7734 175.3L13.0893 177.993L6.40521 180.685L6.744 181.526L13.4281 178.834ZM15.7363 172.841L17.4394 179.843L24.1191 178.218L22.4159 171.216L20.7128 164.215L14.0332 165.839L15.7363 172.841ZM20.6006 165.36L26.8997 161.861L15.297 140.976L8.99785 144.476L2.69876 147.975L14.3015 168.86L20.6006 165.36ZM8.09051 141.65L15.2494 140.828L14.381 133.26L7.22206 134.082L0.0631223 134.903L0.931573 142.471L8.09051 141.65ZM9.84747 131.714L8.29282 138.75L25.937 142.649L27.4916 135.613L29.0463 128.576L11.4021 124.678L9.84747 131.714ZM27.4982 134.186L34.5338 132.628L29.829 111.375L22.7934 112.933L15.7578 114.49L20.4626 135.743L27.4982 134.186ZM22.7934 112.933L29.8873 111.667L28.496 103.867L21.402 105.133L14.3081 106.398L15.6995 114.198L22.7934 112.933ZM30.0635 99.5085L26.0106 105.467C31.6606 109.31 40.2438 115.152 47.4739 120.086C51.0899 122.554 54.362 124.792 56.7581 126.438C57.9578 127.262 58.9284 127.932 59.6099 128.406C59.9529 128.644 60.2076 128.823 60.3762 128.943C60.7959 129.241 60.4398 129.007 60.0718 128.676L64.8967 123.323L69.7216 117.971C69.4854 117.758 69.2749 117.599 69.2488 117.578C69.173 117.52 69.1033 117.468 69.0529 117.431C68.9495 117.356 68.8347 117.273 68.7232 117.194C68.4953 117.032 68.1941 116.821 67.8384 116.574C67.1225 116.076 66.1247 115.388 64.9189 114.559C62.5042 112.9 59.2174 110.653 55.5984 108.183C48.3586 103.242 39.7678 97.3946 34.1163 93.5504L30.0635 99.5085ZM279.286 197.632L284.605 202.493L300.827 184.741L295.507 179.88L290.188 175.019L273.966 192.771L279.286 197.632ZM302.255 221.988L303.974 228.985L324.715 223.888L322.995 216.891L321.276 209.893L300.535 214.99L302.255 221.988ZM325.817 215.655L330.14 221.419L334.586 218.085L330.262 212.32L325.939 206.556L321.493 209.89L325.817 215.655ZM330.184 207.909L334.301 201.994L324.343 195.063L320.226 200.977L316.11 206.891L326.068 213.823L330.184 207.909ZM322.239 198.879L325.921 205.073L345.203 193.613L341.521 187.419L337.839 181.225L318.558 192.684L322.239 198.879ZM343.88 185.658L348.772 190.949L354.261 185.874L349.369 180.583L344.478 175.292L338.988 180.367L343.88 185.658ZM350.517 178.919L357.201 181.611L357.54 180.77L350.856 178.078L344.172 175.386L343.833 176.227L350.517 178.919ZM348.209 172.926L349.912 165.925L343.232 164.3L341.529 171.302L339.826 178.303L346.506 179.928L348.209 172.926ZM343.344 165.446L349.643 168.945L361.246 148.06L354.947 144.561L348.648 141.061L337.045 161.946L343.344 165.446ZM355.855 141.735L363.013 142.556L363.882 134.989L356.723 134.167L349.564 133.346L348.696 140.913L355.855 141.735ZM354.098 131.799L352.543 124.763L334.899 128.662L336.453 135.698L338.008 142.734L355.652 138.836L354.098 131.799ZM336.447 134.271L343.482 135.828L348.187 114.576L341.152 113.018L334.116 111.461L329.411 132.713L336.447 134.271ZM341.152 113.018L348.246 114.284L349.634 106.501L342.54 105.236L335.446 103.97L334.058 111.753L341.152 113.018ZM333.835 99.4954L329.869 93.479C324.261 97.1759 315.51 102.782 308.056 107.546C304.341 109.92 300.948 112.086 298.46 113.681C297.217 114.478 296.185 115.142 295.443 115.624C295.076 115.863 294.76 116.07 294.519 116.231C294.402 116.309 294.275 116.394 294.159 116.475C294.102 116.515 294.019 116.573 293.928 116.64C293.901 116.66 293.634 116.853 293.338 117.12L298.162 122.473L302.987 127.825C302.814 127.981 302.673 128.092 302.622 128.132C302.556 128.184 302.504 128.223 302.476 128.243C302.447 128.265 302.424 128.281 302.413 128.289C302.401 128.298 302.393 128.303 302.392 128.304C302.39 128.305 302.4 128.298 302.424 128.282C302.447 128.266 302.478 128.245 302.518 128.219C302.686 128.107 302.944 127.938 303.297 127.708C303.998 127.252 304.999 126.608 306.238 125.814C308.716 124.225 312.089 122.072 315.817 119.69C323.249 114.94 332.091 109.276 337.801 105.512L333.835 99.4954ZM342.337 102.445L349.174 100.167C346.502 92.148 336.951 88.8112 329.869 93.479L333.835 99.4954L337.801 105.512C336.949 106.073 335.814 105.663 335.5 104.722L342.337 102.445ZM342.54 105.236L349.634 106.501C350.011 104.384 349.853 102.207 349.174 100.167L342.337 102.445L335.5 104.722C335.42 104.48 335.401 104.222 335.446 103.97L342.54 105.236ZM336.124 134.658L338.908 141.304C341.231 140.331 342.938 138.289 343.482 135.829L336.447 134.271L329.411 132.713C329.879 130.601 331.344 128.847 333.34 128.011L336.124 134.658ZM336.453 135.698L334.899 128.662C342.822 126.911 346.394 138.169 338.907 141.304L336.124 134.658L333.34 128.011C324.621 131.663 328.781 144.773 338.008 142.734L336.453 135.698ZM356.723 134.167L363.882 134.989C364.616 128.591 358.831 123.374 352.543 124.763L354.098 131.799L355.652 138.836C352.276 139.582 349.17 136.78 349.564 133.346L356.723 134.167ZM354.947 144.561L361.246 148.06C362.191 146.36 362.792 144.489 363.013 142.556L355.855 141.735L348.696 140.913C348.69 140.965 348.673 141.016 348.648 141.061L354.947 144.561ZM341.676 166.636L342.935 173.731C345.777 173.227 348.241 171.469 349.643 168.945L343.344 165.446L337.045 161.946C337.75 160.678 338.989 159.794 340.417 159.541L341.676 166.636ZM341.529 171.302L343.232 164.3C348.302 165.533 348.073 172.819 342.935 173.731L341.676 166.636L340.417 159.541C330.196 161.354 329.74 175.85 339.826 178.303L341.529 171.302ZM350.856 178.078L357.54 180.77C360.053 174.531 356.448 167.514 349.912 165.925L348.209 172.926L346.506 179.928C344.506 179.442 343.403 177.295 344.172 175.386L350.856 178.078ZM349.369 180.583L354.261 185.874C355.544 184.688 356.548 183.232 357.201 181.611L350.517 178.919L343.833 176.227C343.976 175.871 344.196 175.552 344.477 175.292L349.369 180.583ZM341.521 187.419L345.203 193.613C346.482 192.853 347.679 191.96 348.772 190.949L343.88 185.658L338.988 180.367C338.637 180.692 338.251 180.98 337.839 181.225L341.521 187.419ZM321.267 198.97L318.805 205.742C321.157 206.598 323.769 206.352 325.921 205.073L322.239 198.879L318.558 192.684C320.122 191.755 322.02 191.576 323.73 192.198L321.267 198.97ZM320.226 200.977L324.343 195.063C330.171 199.12 325.48 208.17 318.805 205.742L321.267 198.97L323.73 192.198C314.546 188.858 308.091 201.31 316.11 206.891L320.226 200.977ZM330.262 212.32L334.586 218.085C339.999 214.026 339.854 205.86 334.301 201.995L330.184 207.909L326.067 213.823C323.56 212.077 323.494 208.389 325.939 206.556L330.262 212.32ZM322.995 216.891L324.301 223.977C326.419 223.587 328.418 222.711 330.14 221.419L325.817 215.655L321.493 209.89C321.551 209.847 321.618 209.817 321.689 209.804L322.995 216.891ZM279.316 197.546L273.996 192.685L267.116 200.215L272.435 205.076L277.755 209.937L284.635 202.407L279.316 197.546ZM272.435 205.076L267.116 200.215L241.554 228.189L246.873 233.05L252.192 237.911L277.755 209.937L272.435 205.076ZM290.094 219.289L294.612 213.676L276.953 199.463L272.435 205.076L267.917 210.69L285.576 224.903L290.094 219.289ZM171.617 292.708L176.937 287.847L129.672 236.124L124.353 240.985L119.033 245.846L166.298 297.569L171.617 292.708ZM124.353 240.985L129.672 236.124L122.421 228.189L117.102 233.05L111.782 237.911L119.033 245.846L124.353 240.985ZM124.353 240.985L117.28 239.606L107.889 287.792L114.961 289.17L122.034 290.549L131.426 242.363L124.353 240.985ZM114.961 289.17L110.133 294.519L133.013 315.172L137.842 309.823L142.67 304.473L119.79 283.821L114.961 289.17ZM137.842 309.823L144.964 310.915L150.495 274.857L143.373 273.764L136.25 272.671L130.719 308.73L137.842 309.823ZM151.797 274.558L144.596 274.301L142.694 327.544L149.896 327.801L157.097 328.058L158.999 274.815L151.797 274.558ZM149.896 327.801L153.418 334.088L178.416 320.083L174.894 313.796L171.372 307.51L146.374 321.515L149.896 327.801ZM239.512 241.835L232.389 242.925L240.281 294.541L247.404 293.452L254.527 292.363L246.635 240.746L239.512 241.835ZM247.404 293.452L243.265 287.554L218.721 304.775L222.86 310.673L226.999 316.572L251.543 299.351L247.404 293.452ZM222.86 310.673L229.99 309.632L224.51 272.112L217.38 273.153L210.25 274.195L215.73 311.715L222.86 310.673ZM212.072 277.108H204.866V327.801H212.072H219.278V277.108H212.072ZM212.072 327.801L215.768 321.616L192.663 307.808L188.966 313.993L185.27 320.179L208.375 333.987L212.072 327.801ZM213.194 272.672L206.486 270.039L205.94 271.431L212.648 274.063L219.356 276.696L219.902 275.305L213.194 272.672ZM27.8214 134.573L30.6054 127.926C32.6011 128.762 34.0661 130.516 34.5338 132.628L27.4982 134.186L20.4626 135.743C21.0073 138.203 22.7134 140.245 25.0375 141.219L27.8214 134.573ZM217.38 273.153L224.51 272.112C223.435 264.749 214.629 261.506 209.035 266.412L213.786 271.829L218.537 277.247C215.541 279.875 210.825 278.138 210.25 274.195L217.38 273.153ZM302.255 221.988L300.535 214.99C298.464 215.499 296.274 215.013 294.612 213.676L290.094 219.289L285.576 224.903C290.737 229.057 297.541 230.566 303.974 228.985L302.255 221.988ZM212.072 277.108H219.278C219.278 276.967 219.304 276.827 219.356 276.696L212.648 274.063L205.94 271.431C205.23 273.239 204.866 275.165 204.866 277.108H212.072ZM21.402 105.133L28.496 103.867C28.5429 104.13 28.5232 104.401 28.4388 104.654L21.6022 102.377L14.7657 100.099C14.0899 102.128 13.9326 104.293 14.3081 106.398L21.402 105.133ZM27.4916 135.613L25.937 142.649C35.1658 144.688 39.3223 131.577 30.6053 127.926L27.8214 134.573L25.0375 141.219C17.5523 138.084 21.1213 126.825 29.0463 128.576L27.4916 135.613ZM7.22206 134.082L14.381 133.26C14.7752 136.695 11.669 139.496 8.29283 138.75L9.84747 131.714L11.4021 124.678C5.11405 123.289 -0.671054 128.505 0.0631223 134.903L7.22206 134.082ZM22.2689 166.551L23.5277 159.455C24.9565 159.709 26.195 160.593 26.8997 161.861L20.6006 165.36L14.3016 168.86C15.7035 171.384 18.1676 173.141 21.0101 173.646L22.2689 166.551ZM174.894 313.796L178.416 320.083C180.553 318.886 183.167 318.922 185.27 320.179L188.966 313.993L192.663 307.808C186.131 303.904 178.011 303.791 171.372 307.51L174.894 313.796ZM8.99785 144.476L15.297 140.976C15.2716 140.93 15.2554 140.88 15.2494 140.828L8.09051 141.65L0.931573 142.471C1.15339 144.404 1.75388 146.274 2.69876 147.975L8.99785 144.476ZM13.0893 177.993L19.7734 175.301C20.5423 177.209 19.4392 179.356 17.4394 179.843L15.7363 172.841L14.0332 165.839C7.49749 167.429 3.89216 174.446 6.40521 180.685L13.0893 177.993ZM150.563 271.415L145.46 276.502C144.879 275.919 144.567 275.122 144.596 274.301L151.797 274.558L158.999 274.815C159.112 271.647 157.905 268.573 155.667 266.328L150.563 271.415ZM22.4159 171.216L24.1191 178.218C34.2052 175.765 33.7482 161.269 23.5277 159.455L22.2689 166.551L21.01 173.646C15.8727 172.734 15.6429 165.448 20.7128 164.215L22.4159 171.216ZM143.373 273.764L150.495 274.857C150.126 277.262 147.178 278.226 145.46 276.502L150.563 271.415L155.667 266.328C149.042 259.681 137.673 263.395 136.25 272.671L143.373 273.764ZM14.5757 180.498L19.4675 175.207C19.7488 175.467 19.969 175.786 20.1121 176.142L13.4281 178.834L6.74399 181.526C7.39684 183.147 8.40093 184.603 9.68394 185.789L14.5757 180.498ZM22.424 187.334L26.1057 181.139C25.6936 180.894 25.3085 180.607 24.9566 180.282L20.0649 185.573L15.1731 190.864C16.2663 191.875 17.4627 192.768 18.7424 193.528L22.424 187.334ZM33.6826 212.235L38.0061 206.47C40.4508 208.304 40.3854 211.992 37.8774 213.737L33.7607 207.823L29.644 201.909C24.0911 205.774 23.9464 213.94 29.359 218L33.6826 212.235ZM40.9498 216.805L42.2561 209.719C42.3271 209.732 42.3941 209.761 42.452 209.805L38.1284 215.569L33.8048 221.334C35.5275 222.626 37.5259 223.501 39.6435 223.892L40.9498 216.805ZM73.449 217.863L68.9473 212.236C67.3972 213.476 65.3849 213.982 63.4327 213.622L62.1264 220.709L60.8201 227.795C66.8846 228.913 73.1356 227.342 77.9508 223.49L73.449 217.863ZM43.7186 200.892L47.8353 206.806C55.855 201.224 49.3978 188.774 40.2151 192.113L42.6777 198.885L45.1403 205.657C38.4662 208.084 33.773 199.035 39.6019 194.978L43.7186 200.892ZM42.6777 198.885L40.2151 192.113C41.9249 191.491 43.8233 191.67 45.3872 192.599L41.7056 198.793L38.0241 204.988C40.1758 206.267 42.7878 206.512 45.1402 205.657L42.6777 198.885ZM213.194 272.672L219.902 275.305C219.609 276.052 219.14 276.718 218.537 277.247L213.786 271.829L209.035 266.412C207.908 267.4 207.034 268.644 206.486 270.039L213.194 272.672ZM21.6022 102.377L28.4388 104.654C28.1088 105.645 26.9041 106.074 26.0106 105.467L30.0635 99.5085L34.1163 93.5504C27.0753 88.7609 17.4455 92.0547 14.7657 100.099L21.6022 102.377ZM192.357 292.708L187.038 287.847C184.325 290.816 179.649 290.816 176.937 287.847L171.617 292.708L166.298 297.569C174.725 306.791 189.25 306.791 197.677 297.569L192.357 292.708Z" fill="url(#paint1_linear_3536_6)" fill-opacity="0.3"/>
<defs>
<linearGradient id="paint0_linear_3536_6" x1="243.409" y1="97.2388" x2="246.915" y2="215.651" gradientUnits="userSpaceOnUse">
<stop stop-color="#F5E1E5"/>
<stop offset="0.245192" stop-color="#F96E8F"/>
<stop offset="1" stop-color="#F1455E"/>
</linearGradient>
<linearGradient id="paint1_linear_3536_6" x1="243.505" y1="103.809" x2="247.391" y2="247.329" gradientUnits="userSpaceOnUse">
<stop stop-color="#E48699"/>
<stop offset="0.331731" stop-color="#F96E8F"/>
<stop offset="1" stop-color="#F1455E"/>
</linearGradient>
</defs>
</svg>
