<svg width="80" height="96" viewBox="0 0 80 96" fill="none" xmlns="http://www.w3.org/2000/svg">
<path d="M35.5066 22.1505V29.0467L32.3539 27.4691C29.9844 26.2835 27.3713 25.6662 24.7217 25.6662H23.5344C20.5096 25.6662 17.5712 26.6748 15.184 28.5324C13.4932 29.8482 12.1372 31.5449 11.2267 33.4842L10.1249 35.8309C8.96139 38.309 8.35818 41.013 8.35818 43.7506C8.35818 47.9751 9.79359 52.0742 12.429 55.3758L13.8629 57.1721L21.7447 65.0148L20.3405 72.5011L19.1274 72.5821C13.5748 72.9528 10.4073 79.0941 13.3242 83.8333C14.6697 86.0194 17.0529 87.351 19.6199 87.351H39.7602L59.8502 87.3511C62.4485 87.3511 64.8607 86.0033 66.2226 83.7906L66.8097 82.8366C69.4687 78.5166 66.6287 72.9118 61.5726 72.5011L57.7757 65.0149L65.6575 57.1722L67.2338 55.1975C69.7681 52.0227 71.1623 47.9693 71.1623 43.7762C71.1623 41.0267 70.5623 38.316 69.4111 35.8641L68.4081 33.7279C67.4228 31.6293 65.9864 29.8165 64.2194 28.4415C63.3907 27.7966 62.5024 27.2582 61.5726 26.8325C59.9009 26.0671 58.0947 25.6663 56.2587 25.6663H54.7802C52.1382 25.6663 49.5278 26.2877 47.1303 27.4873L44.0138 29.0468V22.1506H48.6429V14.5783H42.7628V8.35826L39.7602 8.35815H36.7576V14.5782H30.8776V22.1505H35.5066Z" stroke="url(#paint1_linear_3532_120)" stroke-opacity="0.7" stroke-width="14"/>
<path d="M35.5066 22.1505V29.0467L32.3539 27.4691C29.9844 26.2835 27.3713 25.6662 24.7217 25.6662H23.5344C20.5096 25.6662 17.5712 26.6748 15.184 28.5324C13.4932 29.8482 12.1372 31.5449 11.2267 33.4842L10.1249 35.8309C8.96139 38.309 8.35818 41.013 8.35818 43.7506C8.35818 47.9751 9.79359 52.0742 12.429 55.3758L13.8629 57.1721L21.7447 65.0148L20.3405 72.5011L19.1274 72.5821C13.5748 72.9528 10.4073 79.0941 13.3242 83.8333C14.6697 86.0194 17.0529 87.351 19.6199 87.351H39.7602L59.8502 87.3511C62.4485 87.3511 64.8607 86.0033 66.2226 83.7906L66.8097 82.8366C69.4687 78.5166 66.6287 72.9118 61.5726 72.5011L57.7757 65.0149L65.6575 57.1722L67.2338 55.1975C69.7681 52.0227 71.1623 47.9693 71.1623 43.7762C71.1623 41.0267 70.5623 38.316 69.4111 35.8641L68.4081 33.7279C67.4228 31.6293 65.9864 29.8165 64.2194 28.4415C63.3907 27.7966 62.5024 27.2582 61.5726 26.8325C59.9009 26.0671 58.0947 25.6663 56.2587 25.6663H54.7802C52.1382 25.6663 49.5278 26.2877 47.1303 27.4873L44.0138 29.0468V22.1506H48.6429V14.5783H42.7628V8.35826L39.7602 8.35815H36.7576V14.5782H30.8776V22.1505H35.5066Z" fill="url(#paint0_linear_3532_120)"/>
<defs>
<linearGradient id="paint0_linear_3532_120" x1="55.3367" y1="10.6592" x2="57.5859" y2="65.5736" gradientUnits="userSpaceOnUse">
<stop offset="0.0721154" stop-color="#EDB0BE"/>
<stop offset="0.504808" stop-color="#F8D2D9"/>
<stop offset="1" stop-color="#E4677A"/>
</linearGradient>
<linearGradient id="paint1_linear_3532_120" x1="55.3367" y1="10.6592" x2="57.5859" y2="65.5736" gradientUnits="userSpaceOnUse">
<stop offset="0.0769231" stop-color="#FCA2B7"/>
<stop offset="0.509615" stop-color="#F6A8B7"/>
<stop offset="1" stop-color="#EC4F64"/>
</linearGradient>
</defs>
</svg>
