<svg width="138" height="95" viewBox="0 0 138 95" fill="none" xmlns="http://www.w3.org/2000/svg">
<path d="M40.2381 31.4793C40.2403 31.421 40.2993 31.3822 40.3538 31.4032L68.766 42.3968C68.7851 42.4042 68.8063 42.4044 68.8256 42.3975L99.2211 31.4015C99.2766 31.3814 99.3352 31.4225 99.3352 31.4815V93.964C99.3352 94.0298 99.2637 94.0707 99.207 94.0374L68.8385 76.1712C68.812 76.1557 68.7792 76.1556 68.7527 76.171L37.9599 94.0352C37.902 94.0689 37.8297 94.0254 37.8322 93.9584L40.2381 31.4793Z" fill="url(#paint0_linear_3532_64)"/>
<path d="M134.745 59.3631L123.483 2.90677C123.473 2.8538 123.416 2.82396 123.366 2.84519L100.735 12.5167C100.698 12.5325 100.677 12.5721 100.685 12.6115L113.661 77.6648C113.674 77.7289 113.751 77.7552 113.8 77.7122L134.717 59.4438C134.74 59.4238 134.751 59.393 134.745 59.3631Z" fill="url(#paint1_linear_3532_64)"/>
<path d="M2.73294 56.5591L13.9944 0.102758C14.005 0.0497825 14.0616 0.0199415 14.1113 0.0411691L36.7429 9.71265C36.7799 9.72846 36.8008 9.76805 36.7929 9.80752L23.8166 74.8607C23.8038 74.9249 23.7265 74.9512 23.6772 74.9082L2.76041 56.6398C2.73746 56.6198 2.72698 56.589 2.73294 56.5591Z" fill="url(#paint2_linear_3532_64)"/>
<path d="M134.792 59.3707L113.666 77.8881L112.036 69.9334L133.879 55.7193L134.792 59.3707Z" fill="url(#paint3_linear_3532_64)"/>
<path d="M2.58885 56.717L23.7144 75.2345L25.3443 67.2798L3.50166 53.0657L2.58885 56.717Z" fill="url(#paint4_linear_3532_64)"/>
<path d="M99.4581 88.3607V94.1779L68.9722 79.2747L37.7687 94.1368L38.1479 88.5425L68.8592 73.0638L99.4581 88.3607Z" fill="url(#paint5_linear_3532_64)"/>
<defs>
<linearGradient id="paint0_linear_3532_64" x1="54.0075" y1="47.7494" x2="53.9236" y2="91.6207" gradientUnits="userSpaceOnUse">
<stop stop-color="#F3748B"/>
<stop offset="0.706731" stop-color="#E53772"/>
</linearGradient>
<linearGradient id="paint1_linear_3532_64" x1="109.593" y1="24.6506" x2="119.119" y2="73.8233" gradientUnits="userSpaceOnUse">
<stop stop-color="#F3748B"/>
<stop offset="0.706731" stop-color="#E53772"/>
</linearGradient>
<linearGradient id="paint2_linear_3532_64" x1="27.8846" y1="21.8466" x2="18.3589" y2="71.0193" gradientUnits="userSpaceOnUse">
<stop stop-color="#F3748B"/>
<stop offset="0.706731" stop-color="#E53772"/>
</linearGradient>
<linearGradient id="paint3_linear_3532_64" x1="124.057" y1="62.3842" x2="122.83" y2="75.0813" gradientUnits="userSpaceOnUse">
<stop stop-color="#FCDCE1"/>
<stop offset="1" stop-color="#E695A7"/>
</linearGradient>
<linearGradient id="paint4_linear_3532_64" x1="13.3239" y1="59.7306" x2="14.5509" y2="72.4277" gradientUnits="userSpaceOnUse">
<stop stop-color="#FCDCE1"/>
<stop offset="1" stop-color="#E695A7"/>
</linearGradient>
<linearGradient id="paint5_linear_3532_64" x1="68.8397" y1="78.7223" x2="68.8397" y2="94.0572" gradientUnits="userSpaceOnUse">
<stop stop-color="#FCDCE1"/>
<stop offset="1" stop-color="#E695A7"/>
</linearGradient>
</defs>
</svg>
