<svg width="1997" height="2332" viewBox="0 0 1997 2332" fill="none" xmlns="http://www.w3.org/2000/svg">
<path d="M944.711 95.1113C972.5 61.906 1023.39 61.6205 1051.57 94.333L1052.23 95.1113L1052.23 95.1162L1910.6 1120.96L1910.62 1120.98C1932.38 1147.01 1932.38 1184.88 1910.62 1210.91L1910.6 1210.93L1052.23 2236.77L1052.19 2236.82L1052.15 2236.87C1024.14 2270.23 972.8 2270.23 944.786 2236.87L944.746 2236.82L944.707 2236.77L86.3369 1210.93L86.2822 1210.86C64.5562 1184.83 64.5873 1147.02 86.2822 1121.03L86.3369 1120.96L944.707 95.1162L944.711 95.1113Z" stroke="url(#paint0_linear_3510_5)" stroke-width="140"/>
<path d="M1716.17 1165.95L998.469 308.211V1165.95H1716.17Z" fill="white" fill-opacity="0.37"/>
<path d="M280.763 1165.95L998.469 308.211V1165.95H280.763Z" fill="white" fill-opacity="0.21"/>
<path d="M280.763 1165.94L998.469 2023.68V1165.94H280.763Z" fill="white" fill-opacity="0.11"/>
<path d="M1716.17 1165.94L998.469 2023.68V1165.94H1716.17Z" fill="white" fill-opacity="0.18"/>
<defs>
<linearGradient id="paint0_linear_3510_5" x1="998.469" y1="139.945" x2="998.469" y2="2191.95" gradientUnits="userSpaceOnUse">
<stop stop-color="white"/>
<stop offset="1" stop-color="#868686"/>
</linearGradient>
</defs>
</svg>
