<svg width="574" height="729" viewBox="0 0 574 729" fill="none" xmlns="http://www.w3.org/2000/svg">
<path d="M221.064 97.9833L225.536 94.0084C233.48 86.9469 242.589 81.3173 252.458 77.3698C274.366 68.6066 298.805 68.6066 320.713 77.3698C330.582 81.3173 339.691 86.9469 347.635 94.0084L352.107 97.9833C364.539 109.034 374.662 122.435 381.894 137.415L387.203 148.412C394.575 163.682 398.403 180.42 398.403 197.376V205.967C398.403 224.429 392.496 242.406 381.544 257.268L372.671 269.311C371.529 270.861 370.082 272.161 368.419 273.131C359.054 278.594 359.087 292.136 368.477 297.553L387.908 308.764C394.587 312.617 399.311 319.13 400.9 326.675L402.663 335.052C404.885 345.607 401.347 356.548 393.366 363.804L391.689 365.329C387.173 369.434 381.29 371.708 375.187 371.708C360.432 371.708 349.015 384.641 350.846 399.282L353.767 422.651C354.736 430.407 357.695 437.781 362.357 444.055L387.873 478.405C400.048 494.795 414.732 509.162 431.382 520.979L440.991 527.798C458.158 539.981 472.399 555.829 482.684 574.195C490.523 588.193 495.932 603.418 498.681 619.224L502.134 639.081C502.294 640.001 502.374 640.933 502.374 641.866C502.374 650.842 495.098 658.119 486.122 658.119H286.586H87.0496C78.0735 658.119 70.7969 650.842 70.7969 641.866C70.7969 640.933 70.8773 640.001 71.0372 639.081L74.4906 619.224C77.2395 603.418 82.6482 588.193 90.4869 574.195C100.772 555.829 115.014 539.981 132.18 527.798L141.789 520.979C158.44 509.162 173.123 494.795 185.298 478.405L210.815 444.055C215.476 437.781 218.435 430.407 219.405 422.651L222.326 399.282C224.156 384.641 212.739 371.708 197.984 371.708C191.881 371.708 185.998 369.434 181.482 365.329L179.805 363.804C171.824 356.548 168.286 345.607 170.508 335.052L172.272 326.675C173.86 319.13 178.584 312.617 185.263 308.764L204.694 297.553C214.085 292.136 214.117 278.594 204.753 273.131C203.09 272.161 201.643 270.861 200.501 269.311L191.627 257.268C180.676 242.406 174.768 224.429 174.768 205.967V197.376C174.768 180.42 178.596 163.682 185.968 148.412L191.277 137.415C198.509 122.435 208.632 109.034 221.064 97.9833Z" fill="url(#paint0_linear_3461_18)"/>
<path d="M239.311 44.502C269.658 32.3629 303.513 32.3629 333.86 44.502C347.531 49.9701 360.149 57.7682 371.153 67.5498L375.625 71.5254L377.109 72.8604C392.354 86.7521 404.801 103.44 413.773 122.024L419.083 133.022C428.772 153.092 433.804 175.09 433.804 197.376V205.968C433.804 231.579 425.735 256.529 410.762 277.282L410.043 278.268L408.737 280.038C422.468 289.077 432.133 303.199 435.54 319.382L437.304 327.76C442.114 350.607 434.455 374.292 417.179 389.998L415.502 391.522C407.513 398.785 397.772 403.701 387.344 405.861L388.894 418.26L388.938 418.577C389.188 420.158 389.817 421.658 390.773 422.945L416.29 457.295C426.246 470.698 438.254 482.446 451.87 492.109L461.479 498.929V498.93C482.927 514.151 500.721 533.952 513.571 556.898C523.365 574.387 530.122 593.41 533.557 613.158L537.011 633.016L537.189 634.113C537.579 636.679 537.774 639.27 537.774 641.866C537.774 670.393 514.649 693.518 486.122 693.519H87.0498C58.7459 693.519 35.7591 670.753 35.4014 642.534L35.3965 641.866L35.4092 640.754C35.465 638.16 35.7164 635.573 36.1611 633.016L39.6143 613.159C43.0487 593.411 49.8068 574.387 59.6006 556.898C72.4509 533.952 90.2446 514.151 111.692 498.93V498.929L121.302 492.109C134.917 482.447 146.925 470.698 156.881 457.295L182.397 422.945C183.418 421.572 184.066 419.958 184.278 418.26L185.827 405.861C175.624 403.748 166.079 398.996 158.189 391.989L157.67 391.522L155.992 389.997V389.998C138.716 374.292 131.057 350.607 135.867 327.76L137.631 319.382C141.038 303.2 150.703 289.078 164.433 280.039L163.128 278.268C147.694 257.321 139.368 231.986 139.368 205.968V197.376C139.368 175.09 144.4 153.092 154.089 133.022L159.397 122.024C168.659 102.84 181.624 85.6781 197.546 71.5254L202.018 67.5498C213.022 57.7681 225.64 49.9701 239.311 44.502Z" stroke="url(#paint1_linear_3461_18)" stroke-opacity="0.8" stroke-width="70.8"/>
<defs>
<linearGradient id="paint0_linear_3461_18" x1="286.984" y1="113.319" x2="286.586" y2="658.119" gradientUnits="userSpaceOnUse">
<stop stop-color="#CBCDD9"/>
<stop offset="1" stop-color="#575C6E"/>
</linearGradient>
<linearGradient id="paint1_linear_3461_18" x1="286.586" y1="63.7187" x2="286.586" y2="658.119" gradientUnits="userSpaceOnUse">
<stop stop-color="white"/>
<stop offset="1" stop-color="#858585"/>
</linearGradient>
</defs>
</svg>
